<svg width="451" height="276" viewBox="0 0 451 276" fill="none" xmlns="http://www.w3.org/2000/svg">
<path d="M180.23 134.5L187.73 114.5H265.23L272.73 134.5H180.23ZM225.98 51.5L196.48 121L194.48 125.5L168.48 187H144.73L225.98 3.25L307.23 187H283.48L257.98 127L255.98 122L225.98 51.5Z" fill="white"/>
<path d="M4.52914 212.7L5.42914 210.3H14.7291L15.6291 212.7H4.52914ZM10.0191 202.74L6.47914 211.08L6.23914 211.62L3.11914 219H0.269141L10.0191 196.95L19.7691 219H16.9191L13.8591 211.8L13.6191 211.2L10.0191 202.74ZM23.1038 212.64C23.5838 213.48 24.0838 214.22 24.6038 214.86C25.1438 215.5 25.7438 216 26.4038 216.36C27.0638 216.72 27.8138 216.9 28.6538 216.9C29.7738 216.9 30.6738 216.59 31.3538 215.97C32.0338 215.35 32.3738 214.56 32.3738 213.6C32.3738 212.66 32.1538 211.91 31.7138 211.35C31.2738 210.79 30.6938 210.34 29.9738 210C29.2738 209.64 28.5238 209.32 27.7238 209.04C27.2038 208.86 26.6238 208.63 25.9838 208.35C25.3438 208.05 24.7338 207.68 24.1538 207.24C23.5738 206.78 23.0938 206.22 22.7138 205.56C22.3538 204.9 22.1738 204.09 22.1738 203.13C22.1738 202.09 22.4338 201.16 22.9538 200.34C23.4738 199.52 24.1938 198.88 25.1138 198.42C26.0338 197.94 27.0838 197.7 28.2638 197.7C29.4038 197.7 30.3938 197.92 31.2338 198.36C32.0938 198.78 32.8238 199.33 33.4238 200.01C34.0238 200.67 34.4938 201.37 34.8338 202.11L32.6438 203.37C32.3838 202.85 32.0538 202.34 31.6538 201.84C31.2538 201.34 30.7638 200.93 30.1838 200.61C29.6238 200.29 28.9338 200.13 28.1138 200.13C26.9738 200.13 26.1438 200.41 25.6238 200.97C25.1038 201.51 24.8438 202.12 24.8438 202.8C24.8438 203.38 24.9938 203.92 25.2938 204.42C25.5938 204.9 26.0938 205.36 26.7938 205.8C27.5138 206.22 28.4838 206.64 29.7038 207.06C30.2638 207.26 30.8538 207.52 31.4738 207.84C32.0938 208.16 32.6638 208.57 33.1838 209.07C33.7238 209.55 34.1638 210.14 34.5038 210.84C34.8438 211.52 35.0138 212.34 35.0138 213.3C35.0138 214.22 34.8338 215.05 34.4738 215.79C34.1338 216.53 33.6538 217.16 33.0338 217.68C32.4338 218.2 31.7438 218.6 30.9638 218.88C30.2038 219.16 29.4038 219.3 28.5638 219.3C27.4238 219.3 26.3638 219.06 25.3838 218.58C24.4238 218.08 23.5738 217.43 22.8338 216.63C22.1138 215.81 21.5238 214.94 21.0638 214.02L23.1038 212.64ZM40.2594 208.5C40.2594 210.12 40.6194 211.55 41.3394 212.79C42.0794 214.03 43.0394 215 44.2194 215.7C45.3994 216.4 46.6794 216.75 48.0594 216.75C49.0594 216.75 49.9694 216.62 50.7894 216.36C51.6294 216.1 52.3894 215.74 53.0694 215.28C53.7494 214.8 54.3294 214.25 54.8094 213.63V216.99C53.9294 217.77 52.9694 218.35 51.9294 218.73C50.8894 219.11 49.5994 219.3 48.0594 219.3C46.5994 219.3 45.2294 219.04 43.9494 218.52C42.6894 217.98 41.5794 217.23 40.6194 216.27C39.6594 215.29 38.9094 214.14 38.3694 212.82C37.8294 211.5 37.5594 210.06 37.5594 208.5C37.5594 206.94 37.8294 205.5 38.3694 204.18C38.9094 202.86 39.6594 201.72 40.6194 200.76C41.5794 199.78 42.6894 199.03 43.9494 198.51C45.2294 197.97 46.5994 197.7 48.0594 197.7C49.5994 197.7 50.8894 197.89 51.9294 198.27C52.9694 198.65 53.9294 199.23 54.8094 200.01V203.37C54.3294 202.75 53.7494 202.21 53.0694 201.75C52.3894 201.27 51.6294 200.9 50.7894 200.64C49.9694 200.38 49.0594 200.25 48.0594 200.25C46.6794 200.25 45.3994 200.6 44.2194 201.3C43.0394 202 42.0794 202.97 41.3394 204.21C40.6194 205.43 40.2594 206.86 40.2594 208.5ZM60.7065 219V216.6H71.2965V219H60.7065ZM60.7065 200.4V198H71.2965V200.4H60.7065ZM60.7065 208.8V206.4H70.6965V208.8H60.7065ZM59.2965 198H61.8465V219H59.2965V198ZM91.6906 198H94.2406V220.05L78.3406 203.37V219H75.7906V196.95L91.6906 213.63V198ZM99.0523 198H101.602V219H99.0523V198ZM105.352 219H100.462V216.45H105.352C106.532 216.45 107.612 216.27 108.592 215.91C109.572 215.53 110.412 215 111.112 214.32C111.812 213.62 112.352 212.78 112.732 211.8C113.112 210.82 113.302 209.72 113.302 208.5C113.302 207.28 113.112 206.18 112.732 205.2C112.352 204.22 111.812 203.39 111.112 202.71C110.412 202.01 109.572 201.48 108.592 201.12C107.612 200.74 106.532 200.55 105.352 200.55H100.462V198H105.352C107.392 198 109.202 198.44 110.782 199.32C112.362 200.2 113.602 201.43 114.502 203.01C115.402 204.57 115.852 206.4 115.852 208.5C115.852 210.6 115.402 212.44 114.502 214.02C113.602 215.58 112.362 216.8 110.782 217.68C109.202 218.56 107.392 219 105.352 219ZM120.545 212.7L121.445 210.3H130.745L131.645 212.7H120.545ZM126.035 202.74L122.495 211.08L122.255 211.62L119.135 219H116.285L126.035 196.95L135.785 219H132.935L129.875 211.8L129.635 211.2L126.035 202.74ZM154.239 198H156.789V220.05L140.889 203.37V219H138.339V196.95L154.239 213.63V198ZM159.501 200.4V198H172.851V200.4H167.451V219H164.901V200.4H159.501ZM184.541 198H187.091V219H184.541V198ZM190.841 219H185.951V216.45H190.841C192.021 216.45 193.101 216.27 194.081 215.91C195.061 215.53 195.901 215 196.601 214.32C197.301 213.62 197.841 212.78 198.221 211.8C198.601 210.82 198.791 209.72 198.791 208.5C198.791 207.28 198.601 206.18 198.221 205.2C197.841 204.22 197.301 203.39 196.601 202.71C195.901 202.01 195.061 201.48 194.081 201.12C193.101 200.74 192.021 200.55 190.841 200.55H185.951V198H190.841C192.881 198 194.691 198.44 196.271 199.32C197.851 200.2 199.091 201.43 199.991 203.01C200.891 204.57 201.341 206.4 201.341 208.5C201.341 210.6 200.891 212.44 199.991 214.02C199.091 215.58 197.851 216.8 196.271 217.68C194.691 218.56 192.881 219 190.841 219ZM204.931 198H207.481V219H204.931V198ZM222.035 210.75V208.35H231.785C231.785 209.81 231.565 211.2 231.125 212.52C230.685 213.82 230.035 214.98 229.175 216C228.315 217.02 227.255 217.83 225.995 218.43C224.755 219.01 223.335 219.3 221.735 219.3C220.215 219.3 218.805 219.04 217.505 218.52C216.205 217.98 215.075 217.23 214.115 216.27C213.155 215.29 212.405 214.14 211.865 212.82C211.345 211.5 211.085 210.06 211.085 208.5C211.085 206.94 211.345 205.5 211.865 204.18C212.405 202.86 213.155 201.72 214.115 200.76C215.075 199.78 216.205 199.03 217.505 198.51C218.805 197.97 220.215 197.7 221.735 197.7C223.035 197.7 224.225 197.87 225.305 198.21C226.405 198.55 227.385 199.05 228.245 199.71C229.125 200.37 229.865 201.19 230.465 202.17L228.665 203.82C228.005 202.7 227.085 201.83 225.905 201.21C224.725 200.57 223.335 200.25 221.735 200.25C220.255 200.25 218.915 200.6 217.715 201.3C216.515 202 215.555 202.97 214.835 204.21C214.135 205.43 213.785 206.86 213.785 208.5C213.785 210.12 214.135 211.55 214.835 212.79C215.555 214.03 216.515 215 217.715 215.7C218.915 216.4 220.255 216.75 221.735 216.75C222.775 216.75 223.705 216.6 224.525 216.3C225.365 215.98 226.085 215.54 226.685 214.98C227.285 214.42 227.775 213.78 228.155 213.06C228.555 212.34 228.845 211.57 229.025 210.75H222.035ZM235.546 198H238.096V219H235.546V198ZM240.8 200.4V198H254.15V200.4H248.75V219H246.2V200.4H240.8ZM255.867 212.7L256.767 210.3H266.067L266.967 212.7H255.867ZM261.357 202.74L257.817 211.08L257.577 211.62L254.457 219H251.607L261.357 196.95L271.107 219H268.257L265.197 211.8L264.957 211.2L261.357 202.74ZM273.662 198H276.212V216.6H284.462V219H273.662V198ZM296.942 212.64C297.422 213.48 297.922 214.22 298.442 214.86C298.982 215.5 299.582 216 300.242 216.36C300.902 216.72 301.652 216.9 302.492 216.9C303.612 216.9 304.512 216.59 305.192 215.97C305.872 215.35 306.212 214.56 306.212 213.6C306.212 212.66 305.992 211.91 305.552 211.35C305.112 210.79 304.532 210.34 303.812 210C303.112 209.64 302.362 209.32 301.562 209.04C301.042 208.86 300.462 208.63 299.822 208.35C299.182 208.05 298.572 207.68 297.992 207.24C297.412 206.78 296.932 206.22 296.552 205.56C296.192 204.9 296.012 204.09 296.012 203.13C296.012 202.09 296.272 201.16 296.792 200.34C297.312 199.52 298.032 198.88 298.952 198.42C299.872 197.94 300.922 197.7 302.102 197.7C303.242 197.7 304.232 197.92 305.072 198.36C305.932 198.78 306.662 199.33 307.262 200.01C307.862 200.67 308.332 201.37 308.672 202.11L306.482 203.37C306.222 202.85 305.892 202.34 305.492 201.84C305.092 201.34 304.602 200.93 304.022 200.61C303.462 200.29 302.772 200.13 301.952 200.13C300.812 200.13 299.982 200.41 299.462 200.97C298.942 201.51 298.682 202.12 298.682 202.8C298.682 203.38 298.832 203.92 299.132 204.42C299.432 204.9 299.932 205.36 300.632 205.8C301.352 206.22 302.322 206.64 303.542 207.06C304.102 207.26 304.692 207.52 305.312 207.84C305.932 208.16 306.502 208.57 307.022 209.07C307.562 209.55 308.002 210.14 308.342 210.84C308.682 211.52 308.852 212.34 308.852 213.3C308.852 214.22 308.672 215.05 308.312 215.79C307.972 216.53 307.492 217.16 306.872 217.68C306.272 218.2 305.582 218.6 304.802 218.88C304.042 219.16 303.242 219.3 302.402 219.3C301.262 219.3 300.202 219.06 299.222 218.58C298.262 218.08 297.412 217.43 296.672 216.63C295.952 215.81 295.362 214.94 294.902 214.02L296.942 212.64ZM314.097 208.5C314.097 210.08 314.437 211.49 315.117 212.73C315.817 213.97 316.767 214.95 317.967 215.67C319.167 216.39 320.527 216.75 322.047 216.75C323.587 216.75 324.947 216.39 326.127 215.67C327.327 214.95 328.267 213.97 328.947 212.73C329.647 211.49 329.997 210.08 329.997 208.5C329.997 206.92 329.647 205.51 328.947 204.27C328.267 203.03 327.327 202.05 326.127 201.33C324.947 200.61 323.587 200.25 322.047 200.25C320.527 200.25 319.167 200.61 317.967 201.33C316.767 202.05 315.817 203.03 315.117 204.27C314.437 205.51 314.097 206.92 314.097 208.5ZM311.397 208.5C311.397 206.96 311.657 205.54 312.177 204.24C312.717 202.92 313.467 201.78 314.427 200.82C315.387 199.84 316.517 199.08 317.817 198.54C319.117 197.98 320.527 197.7 322.047 197.7C323.587 197.7 324.997 197.98 326.277 198.54C327.577 199.08 328.707 199.84 329.667 200.82C330.627 201.78 331.367 202.92 331.887 204.24C332.427 205.54 332.697 206.96 332.697 208.5C332.697 210.02 332.427 211.44 331.887 212.76C331.367 214.08 330.627 215.23 329.667 216.21C328.707 217.17 327.577 217.93 326.277 218.49C324.997 219.03 323.587 219.3 322.047 219.3C320.527 219.3 319.117 219.03 317.817 218.49C316.517 217.93 315.387 217.17 314.427 216.21C313.467 215.23 312.717 214.08 312.177 212.76C311.657 211.44 311.397 210.02 311.397 208.5ZM336.298 198H338.848V216.6H347.098V219H336.298V198ZM349.654 198H352.204V212.1C352.204 213.54 352.594 214.7 353.374 215.58C354.154 216.46 355.294 216.9 356.794 216.9C358.294 216.9 359.434 216.46 360.214 215.58C360.994 214.7 361.384 213.54 361.384 212.1V198H363.934V212.1C363.934 213.14 363.764 214.1 363.424 214.98C363.104 215.86 362.624 216.62 361.984 217.26C361.364 217.9 360.614 218.4 359.734 218.76C358.854 219.12 357.874 219.3 356.794 219.3C355.714 219.3 354.734 219.12 353.854 218.76C352.974 218.4 352.214 217.9 351.574 217.26C350.954 216.62 350.474 215.86 350.134 214.98C349.814 214.1 349.654 213.14 349.654 212.1V198ZM366.484 200.4V198H379.834V200.4H374.434V219H371.884V200.4H366.484ZM382.529 198H385.079V219H382.529V198ZM391.382 208.5C391.382 210.08 391.722 211.49 392.402 212.73C393.102 213.97 394.052 214.95 395.252 215.67C396.452 216.39 397.812 216.75 399.332 216.75C400.872 216.75 402.232 216.39 403.412 215.67C404.612 214.95 405.552 213.97 406.232 212.73C406.932 211.49 407.282 210.08 407.282 208.5C407.282 206.92 406.932 205.51 406.232 204.27C405.552 203.03 404.612 202.05 403.412 201.33C402.232 200.61 400.872 200.25 399.332 200.25C397.812 200.25 396.452 200.61 395.252 201.33C394.052 202.05 393.102 203.03 392.402 204.27C391.722 205.51 391.382 206.92 391.382 208.5ZM388.682 208.5C388.682 206.96 388.942 205.54 389.462 204.24C390.002 202.92 390.752 201.78 391.712 200.82C392.672 199.84 393.802 199.08 395.102 198.54C396.402 197.98 397.812 197.7 399.332 197.7C400.872 197.7 402.282 197.98 403.562 198.54C404.862 199.08 405.992 199.84 406.952 200.82C407.912 201.78 408.652 202.92 409.172 204.24C409.712 205.54 409.982 206.96 409.982 208.5C409.982 210.02 409.712 211.44 409.172 212.76C408.652 214.08 407.912 215.23 406.952 216.21C405.992 217.17 404.862 217.93 403.562 218.49C402.282 219.03 400.872 219.3 399.332 219.3C397.812 219.3 396.402 219.03 395.102 218.49C393.802 217.93 392.672 217.17 391.712 216.21C390.752 215.23 390.002 214.08 389.462 212.76C388.942 211.44 388.682 210.02 388.682 208.5ZM429.484 198H432.034V220.05L416.134 203.37V219H413.584V196.95L429.484 213.63V198ZM437.625 212.64C438.105 213.48 438.605 214.22 439.125 214.86C439.665 215.5 440.265 216 440.925 216.36C441.585 216.72 442.335 216.9 443.175 216.9C444.295 216.9 445.195 216.59 445.875 215.97C446.555 215.35 446.895 214.56 446.895 213.6C446.895 212.66 446.675 211.91 446.235 211.35C445.795 210.79 445.215 210.34 444.495 210C443.795 209.64 443.045 209.32 442.245 209.04C441.725 208.86 441.145 208.63 440.505 208.35C439.865 208.05 439.255 207.68 438.675 207.24C438.095 206.78 437.615 206.22 437.235 205.56C436.875 204.9 436.695 204.09 436.695 203.13C436.695 202.09 436.955 201.16 437.475 200.34C437.995 199.52 438.715 198.88 439.635 198.42C440.555 197.94 441.605 197.7 442.785 197.7C443.925 197.7 444.915 197.92 445.755 198.36C446.615 198.78 447.345 199.33 447.945 200.01C448.545 200.67 449.015 201.37 449.355 202.11L447.165 203.37C446.905 202.85 446.575 202.34 446.175 201.84C445.775 201.34 445.285 200.93 444.705 200.61C444.145 200.29 443.455 200.13 442.635 200.13C441.495 200.13 440.665 200.41 440.145 200.97C439.625 201.51 439.365 202.12 439.365 202.8C439.365 203.38 439.515 203.92 439.815 204.42C440.115 204.9 440.615 205.36 441.315 205.8C442.035 206.22 443.005 206.64 444.225 207.06C444.785 207.26 445.375 207.52 445.995 207.84C446.615 208.16 447.185 208.57 447.705 209.07C448.245 209.55 448.685 210.14 449.025 210.84C449.365 211.52 449.535 212.34 449.535 213.3C449.535 214.22 449.355 215.05 448.995 215.79C448.655 216.53 448.175 217.16 447.555 217.68C446.955 218.2 446.265 218.6 445.485 218.88C444.725 219.16 443.925 219.3 443.085 219.3C441.945 219.3 440.885 219.06 439.905 218.58C438.945 218.08 438.095 217.43 437.355 216.63C436.635 215.81 436.045 214.94 435.585 214.02L437.625 212.64Z" fill="white"/>
<path d="M26.7381 237.08V235.8H33.8581V237.08H30.9781V247H29.6181V237.08H26.7381ZM45.2956 241.48H46.8156L50.8156 247H49.1356L45.2956 241.48ZM43.2956 235.8H44.6556V247H43.2956V235.8ZM44.0476 237V235.8H46.3356C47.061 235.8 47.7063 235.939 48.2716 236.216C48.8476 236.483 49.301 236.867 49.6316 237.368C49.973 237.869 50.1436 238.467 50.1436 239.16C50.1436 239.843 49.973 240.44 49.6316 240.952C49.301 241.453 48.8476 241.843 48.2716 242.12C47.7063 242.387 47.061 242.52 46.3356 242.52H44.0476V241.32H46.3356C46.8156 241.32 47.237 241.235 47.5996 241.064C47.973 240.893 48.261 240.648 48.4636 240.328C48.677 240.008 48.7836 239.619 48.7836 239.16C48.7836 238.701 48.677 238.312 48.4636 237.992C48.261 237.672 47.973 237.427 47.5996 237.256C47.237 237.085 46.8156 237 46.3356 237H44.0476ZM61.3207 243.64L61.8008 242.36H66.7608L67.2408 243.64H61.3207ZM64.2488 238.328L62.3608 242.776L62.2328 243.064L60.5688 247H59.0488L64.2488 235.24L69.4488 247H67.9288L66.2968 243.16L66.1688 242.84L64.2488 238.328ZM87.2913 235.8H88.6513V247.56L80.1713 238.664V247H78.8113V235.24L87.2913 244.136V235.8ZM99.6335 243.608C99.8895 244.056 100.156 244.451 100.434 244.792C100.722 245.133 101.042 245.4 101.394 245.592C101.746 245.784 102.146 245.88 102.594 245.88C103.191 245.88 103.671 245.715 104.034 245.384C104.396 245.053 104.578 244.632 104.578 244.12C104.578 243.619 104.46 243.219 104.226 242.92C103.991 242.621 103.682 242.381 103.298 242.2C102.924 242.008 102.524 241.837 102.098 241.688C101.82 241.592 101.511 241.469 101.17 241.32C100.828 241.16 100.503 240.963 100.194 240.728C99.8842 240.483 99.6282 240.184 99.4255 239.832C99.2335 239.48 99.1375 239.048 99.1375 238.536C99.1375 237.981 99.2762 237.485 99.5535 237.048C99.8308 236.611 100.215 236.269 100.706 236.024C101.196 235.768 101.756 235.64 102.386 235.64C102.994 235.64 103.522 235.757 103.97 235.992C104.428 236.216 104.818 236.509 105.138 236.872C105.458 237.224 105.708 237.597 105.89 237.992L104.722 238.664C104.583 238.387 104.407 238.115 104.194 237.848C103.98 237.581 103.719 237.363 103.41 237.192C103.111 237.021 102.743 236.936 102.306 236.936C101.698 236.936 101.255 237.085 100.978 237.384C100.7 237.672 100.562 237.997 100.562 238.36C100.562 238.669 100.642 238.957 100.802 239.224C100.962 239.48 101.228 239.725 101.602 239.96C101.986 240.184 102.503 240.408 103.154 240.632C103.452 240.739 103.767 240.877 104.098 241.048C104.428 241.219 104.732 241.437 105.01 241.704C105.298 241.96 105.532 242.275 105.714 242.648C105.895 243.011 105.986 243.448 105.986 243.96C105.986 244.451 105.89 244.893 105.698 245.288C105.516 245.683 105.26 246.019 104.93 246.296C104.61 246.573 104.242 246.787 103.826 246.936C103.42 247.085 102.994 247.16 102.546 247.16C101.938 247.16 101.372 247.032 100.85 246.776C100.338 246.509 99.8842 246.163 99.4895 245.736C99.1055 245.299 98.7908 244.835 98.5455 244.344L99.6335 243.608ZM116.735 237.08V235.8H121.743V237.08H116.735ZM116.735 241.56V240.28H121.583V241.56H116.735ZM115.983 235.8H117.343V247H115.983V235.8ZM132.783 241.4C132.783 242.243 132.964 242.995 133.327 243.656C133.7 244.317 134.207 244.84 134.847 245.224C135.487 245.608 136.212 245.8 137.023 245.8C137.844 245.8 138.57 245.608 139.199 245.224C139.839 244.84 140.34 244.317 140.703 243.656C141.076 242.995 141.263 242.243 141.263 241.4C141.263 240.557 141.076 239.805 140.703 239.144C140.34 238.483 139.839 237.96 139.199 237.576C138.57 237.192 137.844 237 137.023 237C136.212 237 135.487 237.192 134.847 237.576C134.207 237.96 133.7 238.483 133.327 239.144C132.964 239.805 132.783 240.557 132.783 241.4ZM131.343 241.4C131.343 240.579 131.482 239.821 131.759 239.128C132.047 238.424 132.447 237.816 132.959 237.304C133.471 236.781 134.074 236.376 134.767 236.088C135.46 235.789 136.212 235.64 137.023 235.64C137.844 235.64 138.596 235.789 139.279 236.088C139.972 236.376 140.575 236.781 141.087 237.304C141.599 237.816 141.994 238.424 142.271 239.128C142.559 239.821 142.703 240.579 142.703 241.4C142.703 242.211 142.559 242.968 142.271 243.672C141.994 244.376 141.599 244.989 141.087 245.512C140.575 246.024 139.972 246.429 139.279 246.728C138.596 247.016 137.844 247.16 137.023 247.16C136.212 247.16 135.46 247.016 134.767 246.728C134.074 246.429 133.471 246.024 132.959 245.512C132.447 244.989 132.047 244.376 131.759 243.672C131.482 242.968 131.343 242.211 131.343 241.4ZM154.624 241.48H156.144L160.144 247H158.464L154.624 241.48ZM152.624 235.8H153.984V247H152.624V235.8ZM153.376 237V235.8H155.664C156.389 235.8 157.034 235.939 157.6 236.216C158.176 236.483 158.629 236.867 158.96 237.368C159.301 237.869 159.472 238.467 159.472 239.16C159.472 239.843 159.301 240.44 158.96 240.952C158.629 241.453 158.176 241.843 157.6 242.12C157.034 242.387 156.389 242.52 155.664 242.52H153.376V241.32H155.664C156.144 241.32 156.565 241.235 156.928 241.064C157.301 240.893 157.589 240.648 157.792 240.328C158.005 240.008 158.112 239.619 158.112 239.16C158.112 238.701 158.005 238.312 157.792 237.992C157.589 237.672 157.301 237.427 156.928 237.256C156.565 237.085 156.144 237 155.664 237H153.376ZM171.129 239.432L170.297 247H168.937L170.297 235.24L174.777 243.352L179.257 235.24L180.617 247H179.257L178.425 239.432L174.777 245.96L171.129 239.432ZM190.53 235.8H191.89V247H190.53V235.8ZM210.932 235.8H212.292V247.56L203.812 238.664V247H202.452V235.24L210.932 244.136V235.8ZM228.058 242.6V241.32H233.258C233.258 242.099 233.141 242.84 232.906 243.544C232.671 244.237 232.325 244.856 231.866 245.4C231.407 245.944 230.842 246.376 230.17 246.696C229.509 247.005 228.751 247.16 227.898 247.16C227.087 247.16 226.335 247.021 225.642 246.744C224.949 246.456 224.346 246.056 223.834 245.544C223.322 245.021 222.922 244.408 222.634 243.704C222.357 243 222.218 242.232 222.218 241.4C222.218 240.568 222.357 239.8 222.634 239.096C222.922 238.392 223.322 237.784 223.834 237.272C224.346 236.749 224.949 236.349 225.642 236.072C226.335 235.784 227.087 235.64 227.898 235.64C228.591 235.64 229.226 235.731 229.802 235.912C230.389 236.093 230.911 236.36 231.37 236.712C231.839 237.064 232.234 237.501 232.554 238.024L231.594 238.904C231.242 238.307 230.751 237.843 230.122 237.512C229.493 237.171 228.751 237 227.898 237C227.109 237 226.394 237.187 225.754 237.56C225.114 237.933 224.602 238.451 224.218 239.112C223.845 239.763 223.658 240.525 223.658 241.4C223.658 242.264 223.845 243.027 224.218 243.688C224.602 244.349 225.114 244.867 225.754 245.24C226.394 245.613 227.109 245.8 227.898 245.8C228.453 245.8 228.949 245.72 229.386 245.56C229.834 245.389 230.218 245.155 230.538 244.856C230.858 244.557 231.119 244.216 231.322 243.832C231.535 243.448 231.69 243.037 231.786 242.6H228.058ZM262.157 235.8H263.677L259.949 242.168V247H258.589V242.184L254.861 235.8H256.381L259.261 240.984L262.157 235.8ZM273.782 247V245.72H279.43V247H273.782ZM273.782 237.08V235.8H279.43V237.08H273.782ZM273.782 241.56V240.28H279.11V241.56H273.782ZM273.03 235.8H274.39V247H273.03V235.8ZM290.243 243.608C290.499 244.056 290.766 244.451 291.043 244.792C291.331 245.133 291.651 245.4 292.003 245.592C292.355 245.784 292.755 245.88 293.203 245.88C293.8 245.88 294.28 245.715 294.643 245.384C295.006 245.053 295.187 244.632 295.187 244.12C295.187 243.619 295.07 243.219 294.835 242.92C294.6 242.621 294.291 242.381 293.907 242.2C293.534 242.008 293.134 241.837 292.707 241.688C292.43 241.592 292.12 241.469 291.779 241.32C291.438 241.16 291.112 240.963 290.803 240.728C290.494 240.483 290.238 240.184 290.035 239.832C289.843 239.48 289.747 239.048 289.747 238.536C289.747 237.981 289.886 237.485 290.163 237.048C290.44 236.611 290.824 236.269 291.315 236.024C291.806 235.768 292.366 235.64 292.995 235.64C293.603 235.64 294.131 235.757 294.579 235.992C295.038 236.216 295.427 236.509 295.747 236.872C296.067 237.224 296.318 237.597 296.499 237.992L295.331 238.664C295.192 238.387 295.016 238.115 294.803 237.848C294.59 237.581 294.328 237.363 294.019 237.192C293.72 237.021 293.352 236.936 292.915 236.936C292.307 236.936 291.864 237.085 291.587 237.384C291.31 237.672 291.171 237.997 291.171 238.36C291.171 238.669 291.251 238.957 291.411 239.224C291.571 239.48 291.838 239.725 292.211 239.96C292.595 240.184 293.112 240.408 293.763 240.632C294.062 240.739 294.376 240.877 294.707 241.048C295.038 241.219 295.342 241.437 295.619 241.704C295.907 241.96 296.142 242.275 296.323 242.648C296.504 243.011 296.595 243.448 296.595 243.96C296.595 244.451 296.499 244.893 296.307 245.288C296.126 245.683 295.87 246.019 295.539 246.296C295.219 246.573 294.851 246.787 294.435 246.936C294.03 247.085 293.603 247.16 293.155 247.16C292.547 247.16 291.982 247.032 291.459 246.776C290.947 246.509 290.494 246.163 290.099 245.736C289.715 245.299 289.4 244.835 289.155 244.344L290.243 243.608ZM305.473 237.08V235.8H312.593V237.08H309.713V247H308.353V237.08H305.473ZM322.782 247V245.72H328.43V247H322.782ZM322.782 237.08V235.8H328.43V237.08H322.782ZM322.782 241.56V240.28H328.11V241.56H322.782ZM322.03 235.8H323.39V247H322.03V235.8ZM340.827 241.48H342.347L346.347 247H344.667L340.827 241.48ZM338.827 235.8H340.187V247H338.827V235.8ZM339.579 237V235.8H341.867C342.592 235.8 343.238 235.939 343.803 236.216C344.379 236.483 344.832 236.867 345.163 237.368C345.504 237.869 345.675 238.467 345.675 239.16C345.675 239.843 345.504 240.44 345.163 240.952C344.832 241.453 344.379 241.843 343.803 242.12C343.238 242.387 342.592 242.52 341.867 242.52H339.579V241.32H341.867C342.347 241.32 342.768 241.235 343.131 241.064C343.504 240.893 343.792 240.648 343.995 240.328C344.208 240.008 344.315 239.619 344.315 239.16C344.315 238.701 344.208 238.312 343.995 237.992C343.792 237.672 343.504 237.427 343.131 237.256C342.768 237.085 342.347 237 341.867 237H339.579ZM355.78 235.8H357.14V247H355.78V235.8ZM359.14 247H356.532V245.64H359.14C359.769 245.64 360.345 245.544 360.868 245.352C361.391 245.149 361.839 244.867 362.212 244.504C362.585 244.131 362.873 243.683 363.076 243.16C363.279 242.637 363.38 242.051 363.38 241.4C363.38 240.749 363.279 240.163 363.076 239.64C362.873 239.117 362.585 238.675 362.212 238.312C361.839 237.939 361.391 237.656 360.868 237.464C360.345 237.261 359.769 237.16 359.14 237.16H356.532V235.8H359.14C360.228 235.8 361.193 236.035 362.036 236.504C362.879 236.973 363.54 237.629 364.02 238.472C364.5 239.304 364.74 240.28 364.74 241.4C364.74 242.52 364.5 243.501 364.02 244.344C363.54 245.176 362.879 245.827 362.036 246.296C361.193 246.765 360.228 247 359.14 247ZM375.243 243.64L375.723 242.36H380.683L381.163 243.64H375.243ZM378.171 238.328L376.283 242.776L376.155 243.064L374.491 247H372.971L378.171 235.24L383.371 247H381.851L380.219 243.16L380.091 242.84L378.171 238.328ZM397.704 235.8H399.224L395.496 242.168V247H394.136V242.184L390.408 235.8H391.928L394.808 240.984L397.704 235.8ZM408.071 245.24L409.351 245.72L407.591 249.72L406.663 249.384L408.071 245.24ZM3.74262 266.64L4.22263 265.36H9.18263L9.66263 266.64H3.74262ZM6.67063 261.328L4.78263 265.776L4.65463 266.064L2.99063 270H1.47063L6.67063 258.24L11.8706 270H10.3506L8.71863 266.16L8.59063 265.84L6.67063 261.328ZM21.6491 266.608C21.9051 267.056 22.1718 267.451 22.4491 267.792C22.7371 268.133 23.0571 268.4 23.4091 268.592C23.7611 268.784 24.1611 268.88 24.6091 268.88C25.2065 268.88 25.6865 268.715 26.0491 268.384C26.4118 268.053 26.5931 267.632 26.5931 267.12C26.5931 266.619 26.4758 266.219 26.2411 265.92C26.0065 265.621 25.6971 265.381 25.3131 265.2C24.9398 265.008 24.5398 264.837 24.1131 264.688C23.8358 264.592 23.5265 264.469 23.1851 264.32C22.8438 264.16 22.5185 263.963 22.2091 263.728C21.8998 263.483 21.6438 263.184 21.4411 262.832C21.2491 262.48 21.1531 262.048 21.1531 261.536C21.1531 260.981 21.2918 260.485 21.5691 260.048C21.8465 259.611 22.2305 259.269 22.7211 259.024C23.2118 258.768 23.7718 258.64 24.4011 258.64C25.0091 258.64 25.5371 258.757 25.9851 258.992C26.4438 259.216 26.8331 259.509 27.1531 259.872C27.4731 260.224 27.7238 260.597 27.9051 260.992L26.7371 261.664C26.5985 261.387 26.4225 261.115 26.2091 260.848C25.9958 260.581 25.7345 260.363 25.4251 260.192C25.1265 260.021 24.7585 259.936 24.3211 259.936C23.7131 259.936 23.2705 260.085 22.9931 260.384C22.7158 260.672 22.5771 260.997 22.5771 261.36C22.5771 261.669 22.6571 261.957 22.8171 262.224C22.9771 262.48 23.2438 262.725 23.6171 262.96C24.0011 263.184 24.5185 263.408 25.1691 263.632C25.4678 263.739 25.7825 263.877 26.1131 264.048C26.4438 264.219 26.7478 264.437 27.0251 264.704C27.3131 264.96 27.5478 265.275 27.7291 265.648C27.9105 266.011 28.0011 266.448 28.0011 266.96C28.0011 267.451 27.9051 267.893 27.7131 268.288C27.5318 268.683 27.2758 269.019 26.9451 269.296C26.6251 269.573 26.2571 269.787 25.8411 269.936C25.4358 270.085 25.0091 270.16 24.5611 270.16C23.9531 270.16 23.3878 270.032 22.8651 269.776C22.3531 269.509 21.8998 269.163 21.5051 268.736C21.1211 268.299 20.8065 267.835 20.5611 267.344L21.6491 266.608ZM38.7988 264.4C38.7988 265.264 38.9908 266.027 39.3748 266.688C39.7694 267.349 40.2814 267.867 40.9108 268.24C41.5401 268.613 42.2228 268.8 42.9588 268.8C43.4921 268.8 43.9774 268.731 44.4148 268.592C44.8628 268.453 45.2681 268.261 45.6308 268.016C45.9934 267.76 46.3028 267.467 46.5588 267.136V268.928C46.0894 269.344 45.5774 269.653 45.0228 269.856C44.4681 270.059 43.7801 270.16 42.9588 270.16C42.1801 270.16 41.4494 270.021 40.7668 269.744C40.0948 269.456 39.5028 269.056 38.9908 268.544C38.4788 268.021 38.0788 267.408 37.7908 266.704C37.5028 266 37.3588 265.232 37.3588 264.4C37.3588 263.568 37.5028 262.8 37.7908 262.096C38.0788 261.392 38.4788 260.784 38.9908 260.272C39.5028 259.749 40.0948 259.349 40.7668 259.072C41.4494 258.784 42.1801 258.64 42.9588 258.64C43.7801 258.64 44.4681 258.741 45.0228 258.944C45.5774 259.147 46.0894 259.456 46.5588 259.872V261.664C46.3028 261.333 45.9934 261.045 45.6308 260.8C45.2681 260.544 44.8628 260.347 44.4148 260.208C43.9774 260.069 43.4921 260 42.9588 260C42.2228 260 41.5401 260.187 40.9108 260.56C40.2814 260.933 39.7694 261.451 39.3748 262.112C38.9908 262.763 38.7988 263.525 38.7988 264.4ZM57.7039 270V268.72H63.3519V270H57.7039ZM57.7039 260.08V258.8H63.3519V260.08H57.7039ZM57.7039 264.56V263.28H63.0319V264.56H57.7039ZM56.9519 258.8H58.3119V270H56.9519V258.8ZM82.2288 258.8H83.5888V270.56L75.1088 261.664V270H73.7488V258.24L82.2288 267.136V258.8ZM94.155 258.8H95.515V270H94.155V258.8ZM97.515 270H94.907V268.64H97.515C98.1443 268.64 98.7203 268.544 99.243 268.352C99.7657 268.149 100.214 267.867 100.587 267.504C100.96 267.131 101.248 266.683 101.451 266.16C101.654 265.637 101.755 265.051 101.755 264.4C101.755 263.749 101.654 263.163 101.451 262.64C101.248 262.117 100.96 261.675 100.587 261.312C100.214 260.939 99.7657 260.656 99.243 260.464C98.7203 260.261 98.1443 260.16 97.515 260.16H94.907V258.8H97.515C98.603 258.8 99.5683 259.035 100.411 259.504C101.254 259.973 101.915 260.629 102.395 261.472C102.875 262.304 103.115 263.28 103.115 264.4C103.115 265.52 102.875 266.501 102.395 267.344C101.915 268.176 101.254 268.827 100.411 269.296C99.5683 269.765 98.603 270 97.515 270ZM113.03 258.8H114.39V270H113.03V258.8ZM133.432 258.8H134.792V270.56L126.312 261.664V270H124.952V258.24L133.432 267.136V258.8ZM150.558 265.6V264.32H155.758C155.758 265.099 155.641 265.84 155.406 266.544C155.171 267.237 154.825 267.856 154.366 268.4C153.907 268.944 153.342 269.376 152.67 269.696C152.009 270.005 151.251 270.16 150.398 270.16C149.587 270.16 148.835 270.021 148.142 269.744C147.449 269.456 146.846 269.056 146.334 268.544C145.822 268.021 145.422 267.408 145.134 266.704C144.857 266 144.718 265.232 144.718 264.4C144.718 263.568 144.857 262.8 145.134 262.096C145.422 261.392 145.822 260.784 146.334 260.272C146.846 259.749 147.449 259.349 148.142 259.072C148.835 258.784 149.587 258.64 150.398 258.64C151.091 258.64 151.726 258.731 152.302 258.912C152.889 259.093 153.411 259.36 153.87 259.712C154.339 260.064 154.734 260.501 155.054 261.024L154.094 261.904C153.742 261.307 153.251 260.843 152.622 260.512C151.993 260.171 151.251 260 150.398 260C149.609 260 148.894 260.187 148.254 260.56C147.614 260.933 147.102 261.451 146.718 262.112C146.345 262.763 146.158 263.525 146.158 264.4C146.158 265.264 146.345 266.027 146.718 266.688C147.102 267.349 147.614 267.867 148.254 268.24C148.894 268.613 149.609 268.8 150.398 268.8C150.953 268.8 151.449 268.72 151.886 268.56C152.334 268.389 152.718 268.155 153.038 267.856C153.358 267.557 153.619 267.216 153.822 266.832C154.035 266.448 154.19 266.037 154.286 265.6H150.558ZM178.561 258.8H179.921V270H178.561V258.8ZM181.921 270H179.313V268.64H181.921C182.551 268.64 183.127 268.544 183.649 268.352C184.172 268.149 184.62 267.867 184.993 267.504C185.367 267.131 185.655 266.683 185.857 266.16C186.06 265.637 186.161 265.051 186.161 264.4C186.161 263.749 186.06 263.163 185.857 262.64C185.655 262.117 185.367 261.675 184.993 261.312C184.62 260.939 184.172 260.656 183.649 260.464C183.127 260.261 182.551 260.16 181.921 260.16H179.313V258.8H181.921C183.009 258.8 183.975 259.035 184.817 259.504C185.66 259.973 186.321 260.629 186.801 261.472C187.281 262.304 187.521 263.28 187.521 264.4C187.521 265.52 187.281 266.501 186.801 267.344C186.321 268.176 185.66 268.827 184.817 269.296C183.975 269.765 183.009 270 181.921 270ZM197.436 258.8H198.796V270H197.436V258.8ZM214.558 265.6V264.32H219.758C219.758 265.099 219.641 265.84 219.406 266.544C219.171 267.237 218.825 267.856 218.366 268.4C217.907 268.944 217.342 269.376 216.67 269.696C216.009 270.005 215.251 270.16 214.398 270.16C213.587 270.16 212.835 270.021 212.142 269.744C211.449 269.456 210.846 269.056 210.334 268.544C209.822 268.021 209.422 267.408 209.134 266.704C208.857 266 208.718 265.232 208.718 264.4C208.718 263.568 208.857 262.8 209.134 262.096C209.422 261.392 209.822 260.784 210.334 260.272C210.846 259.749 211.449 259.349 212.142 259.072C212.835 258.784 213.587 258.64 214.398 258.64C215.091 258.64 215.726 258.731 216.302 258.912C216.889 259.093 217.411 259.36 217.87 259.712C218.339 260.064 218.734 260.501 219.054 261.024L218.094 261.904C217.742 261.307 217.251 260.843 216.622 260.512C215.993 260.171 215.251 260 214.398 260C213.609 260 212.894 260.187 212.254 260.56C211.614 260.933 211.102 261.451 210.718 262.112C210.345 262.763 210.158 263.525 210.158 264.4C210.158 265.264 210.345 266.027 210.718 266.688C211.102 267.349 211.614 267.867 212.254 268.24C212.894 268.613 213.609 268.8 214.398 268.8C214.953 268.8 215.449 268.72 215.886 268.56C216.334 268.389 216.718 268.155 217.038 267.856C217.358 267.557 217.619 267.216 217.822 266.832C218.035 266.448 218.19 266.037 218.286 265.6H214.558ZM229.764 258.8H231.124V270H229.764V258.8ZM240.566 260.08V258.8H247.686V260.08H244.806V270H243.446V260.08H240.566ZM256.602 266.64L257.082 265.36H262.042L262.522 266.64H256.602ZM259.53 261.328L257.642 265.776L257.514 266.064L255.85 270H254.33L259.53 258.24L264.73 270H263.21L261.578 266.16L261.45 265.84L259.53 261.328ZM274.093 258.8H275.453V268.72H279.853V270H274.093V258.8ZM302.509 266.608C302.765 267.056 303.031 267.451 303.309 267.792C303.597 268.133 303.917 268.4 304.269 268.592C304.621 268.784 305.021 268.88 305.469 268.88C306.066 268.88 306.546 268.715 306.909 268.384C307.271 268.053 307.453 267.632 307.453 267.12C307.453 266.619 307.335 266.219 307.101 265.92C306.866 265.621 306.557 265.381 306.173 265.2C305.799 265.008 305.399 264.837 304.973 264.688C304.695 264.592 304.386 264.469 304.045 264.32C303.703 264.16 303.378 263.963 303.069 263.728C302.759 263.483 302.503 263.184 302.301 262.832C302.109 262.48 302.013 262.048 302.013 261.536C302.013 260.981 302.151 260.485 302.429 260.048C302.706 259.611 303.09 259.269 303.581 259.024C304.071 258.768 304.631 258.64 305.261 258.64C305.869 258.64 306.397 258.757 306.845 258.992C307.303 259.216 307.693 259.509 308.013 259.872C308.333 260.224 308.583 260.597 308.765 260.992L307.597 261.664C307.458 261.387 307.282 261.115 307.069 260.848C306.855 260.581 306.594 260.363 306.285 260.192C305.986 260.021 305.618 259.936 305.181 259.936C304.573 259.936 304.13 260.085 303.853 260.384C303.575 260.672 303.437 260.997 303.437 261.36C303.437 261.669 303.517 261.957 303.677 262.224C303.837 262.48 304.103 262.725 304.477 262.96C304.861 263.184 305.378 263.408 306.029 263.632C306.327 263.739 306.642 263.877 306.973 264.048C307.303 264.219 307.607 264.437 307.885 264.704C308.173 264.96 308.407 265.275 308.589 265.648C308.77 266.011 308.861 266.448 308.861 266.96C308.861 267.451 308.765 267.893 308.573 268.288C308.391 268.683 308.135 269.019 307.805 269.296C307.485 269.573 307.117 269.787 306.701 269.936C306.295 270.085 305.869 270.16 305.421 270.16C304.813 270.16 304.247 270.032 303.725 269.776C303.213 269.509 302.759 269.163 302.365 268.736C301.981 268.299 301.666 267.835 301.421 267.344L302.509 266.608ZM319.658 264.4C319.658 265.243 319.839 265.995 320.202 266.656C320.575 267.317 321.082 267.84 321.722 268.224C322.362 268.608 323.087 268.8 323.898 268.8C324.719 268.8 325.445 268.608 326.074 268.224C326.714 267.84 327.215 267.317 327.578 266.656C327.951 265.995 328.138 265.243 328.138 264.4C328.138 263.557 327.951 262.805 327.578 262.144C327.215 261.483 326.714 260.96 326.074 260.576C325.445 260.192 324.719 260 323.898 260C323.087 260 322.362 260.192 321.722 260.576C321.082 260.96 320.575 261.483 320.202 262.144C319.839 262.805 319.658 263.557 319.658 264.4ZM318.218 264.4C318.218 263.579 318.357 262.821 318.634 262.128C318.922 261.424 319.322 260.816 319.834 260.304C320.346 259.781 320.949 259.376 321.642 259.088C322.335 258.789 323.087 258.64 323.898 258.64C324.719 258.64 325.471 258.789 326.154 259.088C326.847 259.376 327.45 259.781 327.962 260.304C328.474 260.816 328.869 261.424 329.146 262.128C329.434 262.821 329.578 263.579 329.578 264.4C329.578 265.211 329.434 265.968 329.146 266.672C328.869 267.376 328.474 267.989 327.962 268.512C327.45 269.024 326.847 269.429 326.154 269.728C325.471 270.016 324.719 270.16 323.898 270.16C323.087 270.16 322.335 270.016 321.642 269.728C320.949 269.429 320.346 269.024 319.834 268.512C319.322 267.989 318.922 267.376 318.634 266.672C318.357 265.968 318.218 265.211 318.218 264.4ZM339.499 258.8H340.859V268.72H345.259V270H339.499V258.8ZM354.622 258.8H355.982V266.32C355.982 267.088 356.19 267.707 356.606 268.176C357.022 268.645 357.63 268.88 358.43 268.88C359.23 268.88 359.838 268.645 360.254 268.176C360.67 267.707 360.878 267.088 360.878 266.32V258.8H362.238V266.32C362.238 266.875 362.147 267.387 361.966 267.856C361.795 268.325 361.539 268.731 361.198 269.072C360.867 269.413 360.467 269.68 359.998 269.872C359.529 270.064 359.006 270.16 358.43 270.16C357.854 270.16 357.331 270.064 356.862 269.872C356.393 269.68 355.987 269.413 355.646 269.072C355.315 268.731 355.059 268.325 354.878 267.856C354.707 267.387 354.622 266.875 354.622 266.32V258.8ZM371.598 260.08V258.8H378.718V260.08H375.838V270H374.478V260.08H371.598ZM388.155 258.8H389.515V270H388.155V258.8ZM400.877 264.4C400.877 265.243 401.058 265.995 401.421 266.656C401.794 267.317 402.301 267.84 402.941 268.224C403.581 268.608 404.306 268.8 405.117 268.8C405.938 268.8 406.664 268.608 407.293 268.224C407.933 267.84 408.434 267.317 408.797 266.656C409.17 265.995 409.357 265.243 409.357 264.4C409.357 263.557 409.17 262.805 408.797 262.144C408.434 261.483 407.933 260.96 407.293 260.576C406.664 260.192 405.938 260 405.117 260C404.306 260 403.581 260.192 402.941 260.576C402.301 260.96 401.794 261.483 401.421 262.144C401.058 262.805 400.877 263.557 400.877 264.4ZM399.437 264.4C399.437 263.579 399.576 262.821 399.853 262.128C400.141 261.424 400.541 260.816 401.053 260.304C401.565 259.781 402.168 259.376 402.861 259.088C403.554 258.789 404.306 258.64 405.117 258.64C405.938 258.64 406.69 258.789 407.373 259.088C408.066 259.376 408.669 259.781 409.181 260.304C409.693 260.816 410.088 261.424 410.365 262.128C410.653 262.821 410.797 263.579 410.797 264.4C410.797 265.211 410.653 265.968 410.365 266.672C410.088 267.376 409.693 267.989 409.181 268.512C408.669 269.024 408.066 269.429 407.373 269.728C406.69 270.016 405.938 270.16 405.117 270.16C404.306 270.16 403.554 270.016 402.861 269.728C402.168 269.429 401.565 269.024 401.053 268.512C400.541 267.989 400.141 267.376 399.853 266.672C399.576 265.968 399.437 265.211 399.437 264.4ZM429.198 258.8H430.558V270.56L422.078 261.664V270H420.718V258.24L429.198 267.136V258.8ZM441.54 266.608C441.796 267.056 442.062 267.451 442.34 267.792C442.628 268.133 442.948 268.4 443.3 268.592C443.652 268.784 444.052 268.88 444.5 268.88C445.097 268.88 445.577 268.715 445.94 268.384C446.302 268.053 446.484 267.632 446.484 267.12C446.484 266.619 446.366 266.219 446.132 265.92C445.897 265.621 445.588 265.381 445.204 265.2C444.83 265.008 444.43 264.837 444.004 264.688C443.726 264.592 443.417 264.469 443.076 264.32C442.734 264.16 442.409 263.963 442.1 263.728C441.79 263.483 441.534 263.184 441.332 262.832C441.14 262.48 441.044 262.048 441.044 261.536C441.044 260.981 441.182 260.485 441.46 260.048C441.737 259.611 442.121 259.269 442.612 259.024C443.102 258.768 443.662 258.64 444.292 258.64C444.9 258.64 445.428 258.757 445.876 258.992C446.334 259.216 446.724 259.509 447.044 259.872C447.364 260.224 447.614 260.597 447.796 260.992L446.628 261.664C446.489 261.387 446.313 261.115 446.1 260.848C445.886 260.581 445.625 260.363 445.316 260.192C445.017 260.021 444.649 259.936 444.212 259.936C443.604 259.936 443.161 260.085 442.884 260.384C442.606 260.672 442.468 260.997 442.468 261.36C442.468 261.669 442.548 261.957 442.708 262.224C442.868 262.48 443.134 262.725 443.508 262.96C443.892 263.184 444.409 263.408 445.06 263.632C445.358 263.739 445.673 263.877 446.004 264.048C446.334 264.219 446.638 264.437 446.916 264.704C447.204 264.96 447.438 265.275 447.62 265.648C447.801 266.011 447.892 266.448 447.892 266.96C447.892 267.451 447.796 267.893 447.604 268.288C447.422 268.683 447.166 269.019 446.836 269.296C446.516 269.573 446.148 269.787 445.732 269.936C445.326 270.085 444.9 270.16 444.452 270.16C443.844 270.16 443.278 270.032 442.756 269.776C442.244 269.509 441.79 269.163 441.396 268.736C441.012 268.299 440.697 267.835 440.452 267.344L441.54 266.608Z" fill="white"/>
</svg>
