<svg width="634" height="200" viewBox="0 0 634 200" fill="none" xmlns="http://www.w3.org/2000/svg">
<path d="M54.2305 134.5L61.7305 114.5H139.23L146.73 134.5H54.2305ZM99.9805 51.5L70.4805 121L68.4805 125.5L42.4805 187H18.7305L99.9805 3.25L181.23 187H157.48L131.98 127L129.98 122L99.9805 51.5Z" fill="black"/>
<path d="M187.529 82.7L188.429 80.3H197.729L198.629 82.7H187.529ZM193.019 72.74L189.479 81.08L189.239 81.62L186.119 89H183.269L193.019 66.95L202.769 89H199.919L196.859 81.8L196.619 81.2L193.019 72.74ZM206.104 82.64C206.584 83.48 207.084 84.22 207.604 84.86C208.144 85.5 208.744 86 209.404 86.36C210.064 86.72 210.814 86.9 211.654 86.9C212.774 86.9 213.674 86.59 214.354 85.97C215.034 85.35 215.374 84.56 215.374 83.6C215.374 82.66 215.154 81.91 214.714 81.35C214.274 80.79 213.694 80.34 212.974 80C212.274 79.64 211.524 79.32 210.724 79.04C210.204 78.86 209.624 78.63 208.984 78.35C208.344 78.05 207.734 77.68 207.154 77.24C206.574 76.78 206.094 76.22 205.714 75.56C205.354 74.9 205.174 74.09 205.174 73.13C205.174 72.09 205.434 71.16 205.954 70.34C206.474 69.52 207.194 68.88 208.114 68.42C209.034 67.94 210.084 67.7 211.264 67.7C212.404 67.7 213.394 67.92 214.234 68.36C215.094 68.78 215.824 69.33 216.424 70.01C217.024 70.67 217.494 71.37 217.834 72.11L215.644 73.37C215.384 72.85 215.054 72.34 214.654 71.84C214.254 71.34 213.764 70.93 213.184 70.61C212.624 70.29 211.934 70.13 211.114 70.13C209.974 70.13 209.144 70.41 208.624 70.97C208.104 71.51 207.844 72.12 207.844 72.8C207.844 73.38 207.994 73.92 208.294 74.42C208.594 74.9 209.094 75.36 209.794 75.8C210.514 76.22 211.484 76.64 212.704 77.06C213.264 77.26 213.854 77.52 214.474 77.84C215.094 78.16 215.664 78.57 216.184 79.07C216.724 79.55 217.164 80.14 217.504 80.84C217.844 81.52 218.014 82.34 218.014 83.3C218.014 84.22 217.834 85.05 217.474 85.79C217.134 86.53 216.654 87.16 216.034 87.68C215.434 88.2 214.744 88.6 213.964 88.88C213.204 89.16 212.404 89.3 211.564 89.3C210.424 89.3 209.364 89.06 208.384 88.58C207.424 88.08 206.574 87.43 205.834 86.63C205.114 85.81 204.524 84.94 204.064 84.02L206.104 82.64ZM223.259 78.5C223.259 80.12 223.619 81.55 224.339 82.79C225.079 84.03 226.039 85 227.219 85.7C228.399 86.4 229.679 86.75 231.059 86.75C232.059 86.75 232.969 86.62 233.789 86.36C234.629 86.1 235.389 85.74 236.069 85.28C236.749 84.8 237.329 84.25 237.809 83.63V86.99C236.929 87.77 235.969 88.35 234.929 88.73C233.889 89.11 232.599 89.3 231.059 89.3C229.599 89.3 228.229 89.04 226.949 88.52C225.689 87.98 224.579 87.23 223.619 86.27C222.659 85.29 221.909 84.14 221.369 82.82C220.829 81.5 220.559 80.06 220.559 78.5C220.559 76.94 220.829 75.5 221.369 74.18C221.909 72.86 222.659 71.72 223.619 70.76C224.579 69.78 225.689 69.03 226.949 68.51C228.229 67.97 229.599 67.7 231.059 67.7C232.599 67.7 233.889 67.89 234.929 68.27C235.969 68.65 236.929 69.23 237.809 70.01V73.37C237.329 72.75 236.749 72.21 236.069 71.75C235.389 71.27 234.629 70.9 233.789 70.64C232.969 70.38 232.059 70.25 231.059 70.25C229.679 70.25 228.399 70.6 227.219 71.3C226.039 72 225.079 72.97 224.339 74.21C223.619 75.43 223.259 76.86 223.259 78.5ZM243.706 89V86.6H254.296V89H243.706ZM243.706 70.4V68H254.296V70.4H243.706ZM243.706 78.8V76.4H253.696V78.8H243.706ZM242.296 68H244.846V89H242.296V68ZM274.691 68H277.241V90.05L261.341 73.37V89H258.791V66.95L274.691 83.63V68ZM282.052 68H284.602V89H282.052V68ZM288.352 89H283.462V86.45H288.352C289.532 86.45 290.612 86.27 291.592 85.91C292.572 85.53 293.412 85 294.112 84.32C294.812 83.62 295.352 82.78 295.732 81.8C296.112 80.82 296.302 79.72 296.302 78.5C296.302 77.28 296.112 76.18 295.732 75.2C295.352 74.22 294.812 73.39 294.112 72.71C293.412 72.01 292.572 71.48 291.592 71.12C290.612 70.74 289.532 70.55 288.352 70.55H283.462V68H288.352C290.392 68 292.202 68.44 293.782 69.32C295.362 70.2 296.602 71.43 297.502 73.01C298.402 74.57 298.852 76.4 298.852 78.5C298.852 80.6 298.402 82.44 297.502 84.02C296.602 85.58 295.362 86.8 293.782 87.68C292.202 88.56 290.392 89 288.352 89ZM303.545 82.7L304.445 80.3H313.745L314.645 82.7H303.545ZM309.035 72.74L305.495 81.08L305.255 81.62L302.135 89H299.285L309.035 66.95L318.785 89H315.935L312.875 81.8L312.635 81.2L309.035 72.74ZM337.239 68H339.789V90.05L323.889 73.37V89H321.339V66.95L337.239 83.63V68ZM342.501 70.4V68H355.851V70.4H350.451V89H347.901V70.4H342.501ZM367.541 68H370.091V89H367.541V68ZM373.841 89H368.951V86.45H373.841C375.021 86.45 376.101 86.27 377.081 85.91C378.061 85.53 378.901 85 379.601 84.32C380.301 83.62 380.841 82.78 381.221 81.8C381.601 80.82 381.791 79.72 381.791 78.5C381.791 77.28 381.601 76.18 381.221 75.2C380.841 74.22 380.301 73.39 379.601 72.71C378.901 72.01 378.061 71.48 377.081 71.12C376.101 70.74 375.021 70.55 373.841 70.55H368.951V68H373.841C375.881 68 377.691 68.44 379.271 69.32C380.851 70.2 382.091 71.43 382.991 73.01C383.891 74.57 384.341 76.4 384.341 78.5C384.341 80.6 383.891 82.44 382.991 84.02C382.091 85.58 380.851 86.8 379.271 87.68C377.691 88.56 375.881 89 373.841 89ZM387.931 68H390.481V89H387.931V68ZM405.035 80.75V78.35H414.785C414.785 79.81 414.565 81.2 414.125 82.52C413.685 83.82 413.035 84.98 412.175 86C411.315 87.02 410.255 87.83 408.995 88.43C407.755 89.01 406.335 89.3 404.735 89.3C403.215 89.3 401.805 89.04 400.505 88.52C399.205 87.98 398.075 87.23 397.115 86.27C396.155 85.29 395.405 84.14 394.865 82.82C394.345 81.5 394.085 80.06 394.085 78.5C394.085 76.94 394.345 75.5 394.865 74.18C395.405 72.86 396.155 71.72 397.115 70.76C398.075 69.78 399.205 69.03 400.505 68.51C401.805 67.97 403.215 67.7 404.735 67.7C406.035 67.7 407.225 67.87 408.305 68.21C409.405 68.55 410.385 69.05 411.245 69.71C412.125 70.37 412.865 71.19 413.465 72.17L411.665 73.82C411.005 72.7 410.085 71.83 408.905 71.21C407.725 70.57 406.335 70.25 404.735 70.25C403.255 70.25 401.915 70.6 400.715 71.3C399.515 72 398.555 72.97 397.835 74.21C397.135 75.43 396.785 76.86 396.785 78.5C396.785 80.12 397.135 81.55 397.835 82.79C398.555 84.03 399.515 85 400.715 85.7C401.915 86.4 403.255 86.75 404.735 86.75C405.775 86.75 406.705 86.6 407.525 86.3C408.365 85.98 409.085 85.54 409.685 84.98C410.285 84.42 410.775 83.78 411.155 83.06C411.555 82.34 411.845 81.57 412.025 80.75H405.035ZM418.546 68H421.096V89H418.546V68ZM423.8 70.4V68H437.15V70.4H431.75V89H429.2V70.4H423.8ZM438.867 82.7L439.767 80.3H449.067L449.967 82.7H438.867ZM444.357 72.74L440.817 81.08L440.577 81.62L437.457 89H434.607L444.357 66.95L454.107 89H451.257L448.197 81.8L447.957 81.2L444.357 72.74ZM456.662 68H459.212V86.6H467.462V89H456.662V68ZM479.942 82.64C480.422 83.48 480.922 84.22 481.442 84.86C481.982 85.5 482.582 86 483.242 86.36C483.902 86.72 484.652 86.9 485.492 86.9C486.612 86.9 487.512 86.59 488.192 85.97C488.872 85.35 489.212 84.56 489.212 83.6C489.212 82.66 488.992 81.91 488.552 81.35C488.112 80.79 487.532 80.34 486.812 80C486.112 79.64 485.362 79.32 484.562 79.04C484.042 78.86 483.462 78.63 482.822 78.35C482.182 78.05 481.572 77.68 480.992 77.24C480.412 76.78 479.932 76.22 479.552 75.56C479.192 74.9 479.012 74.09 479.012 73.13C479.012 72.09 479.272 71.16 479.792 70.34C480.312 69.52 481.032 68.88 481.952 68.42C482.872 67.94 483.922 67.7 485.102 67.7C486.242 67.7 487.232 67.92 488.072 68.36C488.932 68.78 489.662 69.33 490.262 70.01C490.862 70.67 491.332 71.37 491.672 72.11L489.482 73.37C489.222 72.85 488.892 72.34 488.492 71.84C488.092 71.34 487.602 70.93 487.022 70.61C486.462 70.29 485.772 70.13 484.952 70.13C483.812 70.13 482.982 70.41 482.462 70.97C481.942 71.51 481.682 72.12 481.682 72.8C481.682 73.38 481.832 73.92 482.132 74.42C482.432 74.9 482.932 75.36 483.632 75.8C484.352 76.22 485.322 76.64 486.542 77.06C487.102 77.26 487.692 77.52 488.312 77.84C488.932 78.16 489.502 78.57 490.022 79.07C490.562 79.55 491.002 80.14 491.342 80.84C491.682 81.52 491.852 82.34 491.852 83.3C491.852 84.22 491.672 85.05 491.312 85.79C490.972 86.53 490.492 87.16 489.872 87.68C489.272 88.2 488.582 88.6 487.802 88.88C487.042 89.16 486.242 89.3 485.402 89.3C484.262 89.3 483.202 89.06 482.222 88.58C481.262 88.08 480.412 87.43 479.672 86.63C478.952 85.81 478.362 84.94 477.902 84.02L479.942 82.64ZM497.097 78.5C497.097 80.08 497.437 81.49 498.117 82.73C498.817 83.97 499.767 84.95 500.967 85.67C502.167 86.39 503.527 86.75 505.047 86.75C506.587 86.75 507.947 86.39 509.127 85.67C510.327 84.95 511.267 83.97 511.947 82.73C512.647 81.49 512.997 80.08 512.997 78.5C512.997 76.92 512.647 75.51 511.947 74.27C511.267 73.03 510.327 72.05 509.127 71.33C507.947 70.61 506.587 70.25 505.047 70.25C503.527 70.25 502.167 70.61 500.967 71.33C499.767 72.05 498.817 73.03 498.117 74.27C497.437 75.51 497.097 76.92 497.097 78.5ZM494.397 78.5C494.397 76.96 494.657 75.54 495.177 74.24C495.717 72.92 496.467 71.78 497.427 70.82C498.387 69.84 499.517 69.08 500.817 68.54C502.117 67.98 503.527 67.7 505.047 67.7C506.587 67.7 507.997 67.98 509.277 68.54C510.577 69.08 511.707 69.84 512.667 70.82C513.627 71.78 514.367 72.92 514.887 74.24C515.427 75.54 515.697 76.96 515.697 78.5C515.697 80.02 515.427 81.44 514.887 82.76C514.367 84.08 513.627 85.23 512.667 86.21C511.707 87.17 510.577 87.93 509.277 88.49C507.997 89.03 506.587 89.3 505.047 89.3C503.527 89.3 502.117 89.03 500.817 88.49C499.517 87.93 498.387 87.17 497.427 86.21C496.467 85.23 495.717 84.08 495.177 82.76C494.657 81.44 494.397 80.02 494.397 78.5ZM519.298 68H521.848V86.6H530.098V89H519.298V68ZM532.654 68H535.204V82.1C535.204 83.54 535.594 84.7 536.374 85.58C537.154 86.46 538.294 86.9 539.794 86.9C541.294 86.9 542.434 86.46 543.214 85.58C543.994 84.7 544.384 83.54 544.384 82.1V68H546.934V82.1C546.934 83.14 546.764 84.1 546.424 84.98C546.104 85.86 545.624 86.62 544.984 87.26C544.364 87.9 543.614 88.4 542.734 88.76C541.854 89.12 540.874 89.3 539.794 89.3C538.714 89.3 537.734 89.12 536.854 88.76C535.974 88.4 535.214 87.9 534.574 87.26C533.954 86.62 533.474 85.86 533.134 84.98C532.814 84.1 532.654 83.14 532.654 82.1V68ZM549.484 70.4V68H562.834V70.4H557.434V89H554.884V70.4H549.484ZM565.529 68H568.079V89H565.529V68ZM574.382 78.5C574.382 80.08 574.722 81.49 575.402 82.73C576.102 83.97 577.052 84.95 578.252 85.67C579.452 86.39 580.812 86.75 582.332 86.75C583.872 86.75 585.232 86.39 586.412 85.67C587.612 84.95 588.552 83.97 589.232 82.73C589.932 81.49 590.282 80.08 590.282 78.5C590.282 76.92 589.932 75.51 589.232 74.27C588.552 73.03 587.612 72.05 586.412 71.33C585.232 70.61 583.872 70.25 582.332 70.25C580.812 70.25 579.452 70.61 578.252 71.33C577.052 72.05 576.102 73.03 575.402 74.27C574.722 75.51 574.382 76.92 574.382 78.5ZM571.682 78.5C571.682 76.96 571.942 75.54 572.462 74.24C573.002 72.92 573.752 71.78 574.712 70.82C575.672 69.84 576.802 69.08 578.102 68.54C579.402 67.98 580.812 67.7 582.332 67.7C583.872 67.7 585.282 67.98 586.562 68.54C587.862 69.08 588.992 69.84 589.952 70.82C590.912 71.78 591.652 72.92 592.172 74.24C592.712 75.54 592.982 76.96 592.982 78.5C592.982 80.02 592.712 81.44 592.172 82.76C591.652 84.08 590.912 85.23 589.952 86.21C588.992 87.17 587.862 87.93 586.562 88.49C585.282 89.03 583.872 89.3 582.332 89.3C580.812 89.3 579.402 89.03 578.102 88.49C576.802 87.93 575.672 87.17 574.712 86.21C573.752 85.23 573.002 84.08 572.462 82.76C571.942 81.44 571.682 80.02 571.682 78.5ZM612.484 68H615.034V90.05L599.134 73.37V89H596.584V66.95L612.484 83.63V68ZM620.625 82.64C621.105 83.48 621.605 84.22 622.125 84.86C622.665 85.5 623.265 86 623.925 86.36C624.585 86.72 625.335 86.9 626.175 86.9C627.295 86.9 628.195 86.59 628.875 85.97C629.555 85.35 629.895 84.56 629.895 83.6C629.895 82.66 629.675 81.91 629.235 81.35C628.795 80.79 628.215 80.34 627.495 80C626.795 79.64 626.045 79.32 625.245 79.04C624.725 78.86 624.145 78.63 623.505 78.35C622.865 78.05 622.255 77.68 621.675 77.24C621.095 76.78 620.615 76.22 620.235 75.56C619.875 74.9 619.695 74.09 619.695 73.13C619.695 72.09 619.955 71.16 620.475 70.34C620.995 69.52 621.715 68.88 622.635 68.42C623.555 67.94 624.605 67.7 625.785 67.7C626.925 67.7 627.915 67.92 628.755 68.36C629.615 68.78 630.345 69.33 630.945 70.01C631.545 70.67 632.015 71.37 632.355 72.11L630.165 73.37C629.905 72.85 629.575 72.34 629.175 71.84C628.775 71.34 628.285 70.93 627.705 70.61C627.145 70.29 626.455 70.13 625.635 70.13C624.495 70.13 623.665 70.41 623.145 70.97C622.625 71.51 622.365 72.12 622.365 72.8C622.365 73.38 622.515 73.92 622.815 74.42C623.115 74.9 623.615 75.36 624.315 75.8C625.035 76.22 626.005 76.64 627.225 77.06C627.785 77.26 628.375 77.52 628.995 77.84C629.615 78.16 630.185 78.57 630.705 79.07C631.245 79.55 631.685 80.14 632.025 80.84C632.365 81.52 632.535 82.34 632.535 83.3C632.535 84.22 632.355 85.05 631.995 85.79C631.655 86.53 631.175 87.16 630.555 87.68C629.955 88.2 629.265 88.6 628.485 88.88C627.725 89.16 626.925 89.3 626.085 89.3C624.945 89.3 623.885 89.06 622.905 88.58C621.945 88.08 621.095 87.43 620.355 86.63C619.635 85.81 619.045 84.94 618.585 84.02L620.625 82.64Z" fill="black"/>
<path d="M209.738 107.08V105.8H216.858V107.08H213.978V117H212.618V107.08H209.738ZM228.296 111.48H229.816L233.816 117H232.136L228.296 111.48ZM226.296 105.8H227.656V117H226.296V105.8ZM227.048 107V105.8H229.336C230.061 105.8 230.706 105.939 231.272 106.216C231.848 106.483 232.301 106.867 232.632 107.368C232.973 107.869 233.144 108.467 233.144 109.16C233.144 109.843 232.973 110.44 232.632 110.952C232.301 111.453 231.848 111.843 231.272 112.12C230.706 112.387 230.061 112.52 229.336 112.52H227.048V111.32H229.336C229.816 111.32 230.237 111.235 230.6 111.064C230.973 110.893 231.261 110.648 231.464 110.328C231.677 110.008 231.784 109.619 231.784 109.16C231.784 108.701 231.677 108.312 231.464 107.992C231.261 107.672 230.973 107.427 230.6 107.256C230.237 107.085 229.816 107 229.336 107H227.048ZM244.321 113.64L244.801 112.36H249.761L250.241 113.64H244.321ZM247.249 108.328L245.361 112.776L245.233 113.064L243.569 117H242.049L247.249 105.24L252.449 117H250.929L249.297 113.16L249.169 112.84L247.249 108.328ZM270.291 105.8H271.651V117.56L263.171 108.664V117H261.811V105.24L270.291 114.136V105.8ZM282.634 113.608C282.89 114.056 283.156 114.451 283.434 114.792C283.722 115.133 284.042 115.4 284.394 115.592C284.746 115.784 285.146 115.88 285.594 115.88C286.191 115.88 286.671 115.715 287.034 115.384C287.396 115.053 287.578 114.632 287.578 114.12C287.578 113.619 287.46 113.219 287.226 112.92C286.991 112.621 286.682 112.381 286.298 112.2C285.924 112.008 285.524 111.837 285.098 111.688C284.82 111.592 284.511 111.469 284.17 111.32C283.828 111.16 283.503 110.963 283.194 110.728C282.884 110.483 282.628 110.184 282.426 109.832C282.234 109.48 282.138 109.048 282.138 108.536C282.138 107.981 282.276 107.485 282.554 107.048C282.831 106.611 283.215 106.269 283.706 106.024C284.196 105.768 284.756 105.64 285.386 105.64C285.994 105.64 286.522 105.757 286.97 105.992C287.428 106.216 287.818 106.509 288.138 106.872C288.458 107.224 288.708 107.597 288.89 107.992L287.722 108.664C287.583 108.387 287.407 108.115 287.194 107.848C286.98 107.581 286.719 107.363 286.41 107.192C286.111 107.021 285.743 106.936 285.306 106.936C284.698 106.936 284.255 107.085 283.978 107.384C283.7 107.672 283.562 107.997 283.562 108.36C283.562 108.669 283.642 108.957 283.802 109.224C283.962 109.48 284.228 109.725 284.602 109.96C284.986 110.184 285.503 110.408 286.154 110.632C286.452 110.739 286.767 110.877 287.098 111.048C287.428 111.219 287.732 111.437 288.01 111.704C288.298 111.96 288.532 112.275 288.714 112.648C288.895 113.011 288.986 113.448 288.986 113.96C288.986 114.451 288.89 114.893 288.698 115.288C288.516 115.683 288.26 116.019 287.93 116.296C287.61 116.573 287.242 116.787 286.826 116.936C286.42 117.085 285.994 117.16 285.546 117.16C284.938 117.16 284.372 117.032 283.85 116.776C283.338 116.509 282.884 116.163 282.49 115.736C282.106 115.299 281.791 114.835 281.546 114.344L282.634 113.608ZM299.735 107.08V105.8H304.743V107.08H299.735ZM299.735 111.56V110.28H304.583V111.56H299.735ZM298.983 105.8H300.343V117H298.983V105.8ZM315.783 111.4C315.783 112.243 315.964 112.995 316.327 113.656C316.7 114.317 317.207 114.84 317.847 115.224C318.487 115.608 319.212 115.8 320.023 115.8C320.844 115.8 321.57 115.608 322.199 115.224C322.839 114.84 323.34 114.317 323.703 113.656C324.076 112.995 324.263 112.243 324.263 111.4C324.263 110.557 324.076 109.805 323.703 109.144C323.34 108.483 322.839 107.96 322.199 107.576C321.57 107.192 320.844 107 320.023 107C319.212 107 318.487 107.192 317.847 107.576C317.207 107.96 316.7 108.483 316.327 109.144C315.964 109.805 315.783 110.557 315.783 111.4ZM314.343 111.4C314.343 110.579 314.482 109.821 314.759 109.128C315.047 108.424 315.447 107.816 315.959 107.304C316.471 106.781 317.074 106.376 317.767 106.088C318.46 105.789 319.212 105.64 320.023 105.64C320.844 105.64 321.596 105.789 322.279 106.088C322.972 106.376 323.575 106.781 324.087 107.304C324.599 107.816 324.994 108.424 325.271 109.128C325.559 109.821 325.703 110.579 325.703 111.4C325.703 112.211 325.559 112.968 325.271 113.672C324.994 114.376 324.599 114.989 324.087 115.512C323.575 116.024 322.972 116.429 322.279 116.728C321.596 117.016 320.844 117.16 320.023 117.16C319.212 117.16 318.46 117.016 317.767 116.728C317.074 116.429 316.471 116.024 315.959 115.512C315.447 114.989 315.047 114.376 314.759 113.672C314.482 112.968 314.343 112.211 314.343 111.4ZM337.624 111.48H339.144L343.144 117H341.464L337.624 111.48ZM335.624 105.8H336.984V117H335.624V105.8ZM336.376 107V105.8H338.664C339.389 105.8 340.034 105.939 340.6 106.216C341.176 106.483 341.629 106.867 341.96 107.368C342.301 107.869 342.472 108.467 342.472 109.16C342.472 109.843 342.301 110.44 341.96 110.952C341.629 111.453 341.176 111.843 340.6 112.12C340.034 112.387 339.389 112.52 338.664 112.52H336.376V111.32H338.664C339.144 111.32 339.565 111.235 339.928 111.064C340.301 110.893 340.589 110.648 340.792 110.328C341.005 110.008 341.112 109.619 341.112 109.16C341.112 108.701 341.005 108.312 340.792 107.992C340.589 107.672 340.301 107.427 339.928 107.256C339.565 107.085 339.144 107 338.664 107H336.376ZM354.129 109.432L353.297 117H351.937L353.297 105.24L357.777 113.352L362.257 105.24L363.617 117H362.257L361.425 109.432L357.777 115.96L354.129 109.432ZM373.53 105.8H374.89V117H373.53V105.8ZM393.932 105.8H395.292V117.56L386.812 108.664V117H385.452V105.24L393.932 114.136V105.8ZM411.058 112.6V111.32H416.258C416.258 112.099 416.141 112.84 415.906 113.544C415.671 114.237 415.325 114.856 414.866 115.4C414.407 115.944 413.842 116.376 413.17 116.696C412.509 117.005 411.751 117.16 410.898 117.16C410.087 117.16 409.335 117.021 408.642 116.744C407.949 116.456 407.346 116.056 406.834 115.544C406.322 115.021 405.922 114.408 405.634 113.704C405.357 113 405.218 112.232 405.218 111.4C405.218 110.568 405.357 109.8 405.634 109.096C405.922 108.392 406.322 107.784 406.834 107.272C407.346 106.749 407.949 106.349 408.642 106.072C409.335 105.784 410.087 105.64 410.898 105.64C411.591 105.64 412.226 105.731 412.802 105.912C413.389 106.093 413.911 106.36 414.37 106.712C414.839 107.064 415.234 107.501 415.554 108.024L414.594 108.904C414.242 108.307 413.751 107.843 413.122 107.512C412.493 107.171 411.751 107 410.898 107C410.109 107 409.394 107.187 408.754 107.56C408.114 107.933 407.602 108.451 407.218 109.112C406.845 109.763 406.658 110.525 406.658 111.4C406.658 112.264 406.845 113.027 407.218 113.688C407.602 114.349 408.114 114.867 408.754 115.24C409.394 115.613 410.109 115.8 410.898 115.8C411.453 115.8 411.949 115.72 412.386 115.56C412.834 115.389 413.218 115.155 413.538 114.856C413.858 114.557 414.119 114.216 414.322 113.832C414.535 113.448 414.69 113.037 414.786 112.6H411.058ZM445.157 105.8H446.677L442.949 112.168V117H441.589V112.184L437.861 105.8H439.381L442.261 110.984L445.157 105.8ZM456.782 117V115.72H462.43V117H456.782ZM456.782 107.08V105.8H462.43V107.08H456.782ZM456.782 111.56V110.28H462.11V111.56H456.782ZM456.03 105.8H457.39V117H456.03V105.8ZM473.243 113.608C473.499 114.056 473.766 114.451 474.043 114.792C474.331 115.133 474.651 115.4 475.003 115.592C475.355 115.784 475.755 115.88 476.203 115.88C476.8 115.88 477.28 115.715 477.643 115.384C478.006 115.053 478.187 114.632 478.187 114.12C478.187 113.619 478.07 113.219 477.835 112.92C477.6 112.621 477.291 112.381 476.907 112.2C476.534 112.008 476.134 111.837 475.707 111.688C475.43 111.592 475.12 111.469 474.779 111.32C474.438 111.16 474.112 110.963 473.803 110.728C473.494 110.483 473.238 110.184 473.035 109.832C472.843 109.48 472.747 109.048 472.747 108.536C472.747 107.981 472.886 107.485 473.163 107.048C473.44 106.611 473.824 106.269 474.315 106.024C474.806 105.768 475.366 105.64 475.995 105.64C476.603 105.64 477.131 105.757 477.579 105.992C478.038 106.216 478.427 106.509 478.747 106.872C479.067 107.224 479.318 107.597 479.499 107.992L478.331 108.664C478.192 108.387 478.016 108.115 477.803 107.848C477.59 107.581 477.328 107.363 477.019 107.192C476.72 107.021 476.352 106.936 475.915 106.936C475.307 106.936 474.864 107.085 474.587 107.384C474.31 107.672 474.171 107.997 474.171 108.36C474.171 108.669 474.251 108.957 474.411 109.224C474.571 109.48 474.838 109.725 475.211 109.96C475.595 110.184 476.112 110.408 476.763 110.632C477.062 110.739 477.376 110.877 477.707 111.048C478.038 111.219 478.342 111.437 478.619 111.704C478.907 111.96 479.142 112.275 479.323 112.648C479.504 113.011 479.595 113.448 479.595 113.96C479.595 114.451 479.499 114.893 479.307 115.288C479.126 115.683 478.87 116.019 478.539 116.296C478.219 116.573 477.851 116.787 477.435 116.936C477.03 117.085 476.603 117.16 476.155 117.16C475.547 117.16 474.982 117.032 474.459 116.776C473.947 116.509 473.494 116.163 473.099 115.736C472.715 115.299 472.4 114.835 472.155 114.344L473.243 113.608ZM488.473 107.08V105.8H495.593V107.08H492.713V117H491.353V107.08H488.473ZM505.782 117V115.72H511.43V117H505.782ZM505.782 107.08V105.8H511.43V107.08H505.782ZM505.782 111.56V110.28H511.11V111.56H505.782ZM505.03 105.8H506.39V117H505.03V105.8ZM523.827 111.48H525.347L529.347 117H527.667L523.827 111.48ZM521.827 105.8H523.187V117H521.827V105.8ZM522.579 107V105.8H524.867C525.592 105.8 526.238 105.939 526.803 106.216C527.379 106.483 527.832 106.867 528.163 107.368C528.504 107.869 528.675 108.467 528.675 109.16C528.675 109.843 528.504 110.44 528.163 110.952C527.832 111.453 527.379 111.843 526.803 112.12C526.238 112.387 525.592 112.52 524.867 112.52H522.579V111.32H524.867C525.347 111.32 525.768 111.235 526.131 111.064C526.504 110.893 526.792 110.648 526.995 110.328C527.208 110.008 527.315 109.619 527.315 109.16C527.315 108.701 527.208 108.312 526.995 107.992C526.792 107.672 526.504 107.427 526.131 107.256C525.768 107.085 525.347 107 524.867 107H522.579ZM538.78 105.8H540.14V117H538.78V105.8ZM542.14 117H539.532V115.64H542.14C542.769 115.64 543.345 115.544 543.868 115.352C544.391 115.149 544.839 114.867 545.212 114.504C545.585 114.131 545.873 113.683 546.076 113.16C546.279 112.637 546.38 112.051 546.38 111.4C546.38 110.749 546.279 110.163 546.076 109.64C545.873 109.117 545.585 108.675 545.212 108.312C544.839 107.939 544.391 107.656 543.868 107.464C543.345 107.261 542.769 107.16 542.14 107.16H539.532V105.8H542.14C543.228 105.8 544.193 106.035 545.036 106.504C545.879 106.973 546.54 107.629 547.02 108.472C547.5 109.304 547.74 110.28 547.74 111.4C547.74 112.52 547.5 113.501 547.02 114.344C546.54 115.176 545.879 115.827 545.036 116.296C544.193 116.765 543.228 117 542.14 117ZM558.243 113.64L558.723 112.36H563.683L564.163 113.64H558.243ZM561.171 108.328L559.283 112.776L559.155 113.064L557.491 117H555.971L561.171 105.24L566.371 117H564.851L563.219 113.16L563.091 112.84L561.171 108.328ZM580.704 105.8H582.224L578.496 112.168V117H577.136V112.184L573.408 105.8H574.928L577.808 110.984L580.704 105.8ZM591.071 115.24L592.351 115.72L590.591 119.72L589.663 119.384L591.071 115.24ZM186.743 136.64L187.223 135.36H192.183L192.663 136.64H186.743ZM189.671 131.328L187.783 135.776L187.655 136.064L185.991 140H184.471L189.671 128.24L194.871 140H193.351L191.719 136.16L191.591 135.84L189.671 131.328ZM204.649 136.608C204.905 137.056 205.172 137.451 205.449 137.792C205.737 138.133 206.057 138.4 206.409 138.592C206.761 138.784 207.161 138.88 207.609 138.88C208.206 138.88 208.686 138.715 209.049 138.384C209.412 138.053 209.593 137.632 209.593 137.12C209.593 136.619 209.476 136.219 209.241 135.92C209.006 135.621 208.697 135.381 208.313 135.2C207.94 135.008 207.54 134.837 207.113 134.688C206.836 134.592 206.526 134.469 206.185 134.32C205.844 134.16 205.518 133.963 205.209 133.728C204.9 133.483 204.644 133.184 204.441 132.832C204.249 132.48 204.153 132.048 204.153 131.536C204.153 130.981 204.292 130.485 204.569 130.048C204.846 129.611 205.23 129.269 205.721 129.024C206.212 128.768 206.772 128.64 207.401 128.64C208.009 128.64 208.537 128.757 208.985 128.992C209.444 129.216 209.833 129.509 210.153 129.872C210.473 130.224 210.724 130.597 210.905 130.992L209.737 131.664C209.598 131.387 209.422 131.115 209.209 130.848C208.996 130.581 208.734 130.363 208.425 130.192C208.126 130.021 207.758 129.936 207.321 129.936C206.713 129.936 206.27 130.085 205.993 130.384C205.716 130.672 205.577 130.997 205.577 131.36C205.577 131.669 205.657 131.957 205.817 132.224C205.977 132.48 206.244 132.725 206.617 132.96C207.001 133.184 207.518 133.408 208.169 133.632C208.468 133.739 208.782 133.877 209.113 134.048C209.444 134.219 209.748 134.437 210.025 134.704C210.313 134.96 210.548 135.275 210.729 135.648C210.91 136.011 211.001 136.448 211.001 136.96C211.001 137.451 210.905 137.893 210.713 138.288C210.532 138.683 210.276 139.019 209.945 139.296C209.625 139.573 209.257 139.787 208.841 139.936C208.436 140.085 208.009 140.16 207.561 140.16C206.953 140.16 206.388 140.032 205.865 139.776C205.353 139.509 204.9 139.163 204.505 138.736C204.121 138.299 203.806 137.835 203.561 137.344L204.649 136.608ZM221.799 134.4C221.799 135.264 221.991 136.027 222.375 136.688C222.769 137.349 223.281 137.867 223.911 138.24C224.54 138.613 225.223 138.8 225.959 138.8C226.492 138.8 226.977 138.731 227.415 138.592C227.863 138.453 228.268 138.261 228.631 138.016C228.993 137.76 229.303 137.467 229.559 137.136V138.928C229.089 139.344 228.577 139.653 228.023 139.856C227.468 140.059 226.78 140.16 225.959 140.16C225.18 140.16 224.449 140.021 223.767 139.744C223.095 139.456 222.503 139.056 221.991 138.544C221.479 138.021 221.079 137.408 220.791 136.704C220.503 136 220.359 135.232 220.359 134.4C220.359 133.568 220.503 132.8 220.791 132.096C221.079 131.392 221.479 130.784 221.991 130.272C222.503 129.749 223.095 129.349 223.767 129.072C224.449 128.784 225.18 128.64 225.959 128.64C226.78 128.64 227.468 128.741 228.023 128.944C228.577 129.147 229.089 129.456 229.559 129.872V131.664C229.303 131.333 228.993 131.045 228.631 130.8C228.268 130.544 227.863 130.347 227.415 130.208C226.977 130.069 226.492 130 225.959 130C225.223 130 224.54 130.187 223.911 130.56C223.281 130.933 222.769 131.451 222.375 132.112C221.991 132.763 221.799 133.525 221.799 134.4ZM240.704 140V138.72H246.352V140H240.704ZM240.704 130.08V128.8H246.352V130.08H240.704ZM240.704 134.56V133.28H246.032V134.56H240.704ZM239.952 128.8H241.312V140H239.952V128.8ZM265.229 128.8H266.589V140.56L258.109 131.664V140H256.749V128.24L265.229 137.136V128.8ZM277.155 128.8H278.515V140H277.155V128.8ZM280.515 140H277.907V138.64H280.515C281.144 138.64 281.72 138.544 282.243 138.352C282.766 138.149 283.214 137.867 283.587 137.504C283.96 137.131 284.248 136.683 284.451 136.16C284.654 135.637 284.755 135.051 284.755 134.4C284.755 133.749 284.654 133.163 284.451 132.64C284.248 132.117 283.96 131.675 283.587 131.312C283.214 130.939 282.766 130.656 282.243 130.464C281.72 130.261 281.144 130.16 280.515 130.16H277.907V128.8H280.515C281.603 128.8 282.568 129.035 283.411 129.504C284.254 129.973 284.915 130.629 285.395 131.472C285.875 132.304 286.115 133.28 286.115 134.4C286.115 135.52 285.875 136.501 285.395 137.344C284.915 138.176 284.254 138.827 283.411 139.296C282.568 139.765 281.603 140 280.515 140ZM296.03 128.8H297.39V140H296.03V128.8ZM316.432 128.8H317.792V140.56L309.312 131.664V140H307.952V128.24L316.432 137.136V128.8ZM333.558 135.6V134.32H338.758C338.758 135.099 338.641 135.84 338.406 136.544C338.171 137.237 337.825 137.856 337.366 138.4C336.907 138.944 336.342 139.376 335.67 139.696C335.009 140.005 334.251 140.16 333.398 140.16C332.587 140.16 331.835 140.021 331.142 139.744C330.449 139.456 329.846 139.056 329.334 138.544C328.822 138.021 328.422 137.408 328.134 136.704C327.857 136 327.718 135.232 327.718 134.4C327.718 133.568 327.857 132.8 328.134 132.096C328.422 131.392 328.822 130.784 329.334 130.272C329.846 129.749 330.449 129.349 331.142 129.072C331.835 128.784 332.587 128.64 333.398 128.64C334.091 128.64 334.726 128.731 335.302 128.912C335.889 129.093 336.411 129.36 336.87 129.712C337.339 130.064 337.734 130.501 338.054 131.024L337.094 131.904C336.742 131.307 336.251 130.843 335.622 130.512C334.993 130.171 334.251 130 333.398 130C332.609 130 331.894 130.187 331.254 130.56C330.614 130.933 330.102 131.451 329.718 132.112C329.345 132.763 329.158 133.525 329.158 134.4C329.158 135.264 329.345 136.027 329.718 136.688C330.102 137.349 330.614 137.867 331.254 138.24C331.894 138.613 332.609 138.8 333.398 138.8C333.953 138.8 334.449 138.72 334.886 138.56C335.334 138.389 335.718 138.155 336.038 137.856C336.358 137.557 336.619 137.216 336.822 136.832C337.035 136.448 337.19 136.037 337.286 135.6H333.558ZM361.561 128.8H362.921V140H361.561V128.8ZM364.921 140H362.313V138.64H364.921C365.551 138.64 366.127 138.544 366.649 138.352C367.172 138.149 367.62 137.867 367.993 137.504C368.367 137.131 368.655 136.683 368.857 136.16C369.06 135.637 369.161 135.051 369.161 134.4C369.161 133.749 369.06 133.163 368.857 132.64C368.655 132.117 368.367 131.675 367.993 131.312C367.62 130.939 367.172 130.656 366.649 130.464C366.127 130.261 365.551 130.16 364.921 130.16H362.313V128.8H364.921C366.009 128.8 366.975 129.035 367.817 129.504C368.66 129.973 369.321 130.629 369.801 131.472C370.281 132.304 370.521 133.28 370.521 134.4C370.521 135.52 370.281 136.501 369.801 137.344C369.321 138.176 368.66 138.827 367.817 139.296C366.975 139.765 366.009 140 364.921 140ZM380.436 128.8H381.796V140H380.436V128.8ZM397.558 135.6V134.32H402.758C402.758 135.099 402.641 135.84 402.406 136.544C402.171 137.237 401.825 137.856 401.366 138.4C400.907 138.944 400.342 139.376 399.67 139.696C399.009 140.005 398.251 140.16 397.398 140.16C396.587 140.16 395.835 140.021 395.142 139.744C394.449 139.456 393.846 139.056 393.334 138.544C392.822 138.021 392.422 137.408 392.134 136.704C391.857 136 391.718 135.232 391.718 134.4C391.718 133.568 391.857 132.8 392.134 132.096C392.422 131.392 392.822 130.784 393.334 130.272C393.846 129.749 394.449 129.349 395.142 129.072C395.835 128.784 396.587 128.64 397.398 128.64C398.091 128.64 398.726 128.731 399.302 128.912C399.889 129.093 400.411 129.36 400.87 129.712C401.339 130.064 401.734 130.501 402.054 131.024L401.094 131.904C400.742 131.307 400.251 130.843 399.622 130.512C398.993 130.171 398.251 130 397.398 130C396.609 130 395.894 130.187 395.254 130.56C394.614 130.933 394.102 131.451 393.718 132.112C393.345 132.763 393.158 133.525 393.158 134.4C393.158 135.264 393.345 136.027 393.718 136.688C394.102 137.349 394.614 137.867 395.254 138.24C395.894 138.613 396.609 138.8 397.398 138.8C397.953 138.8 398.449 138.72 398.886 138.56C399.334 138.389 399.718 138.155 400.038 137.856C400.358 137.557 400.619 137.216 400.822 136.832C401.035 136.448 401.19 136.037 401.286 135.6H397.558ZM412.764 128.8H414.124V140H412.764V128.8ZM423.566 130.08V128.8H430.686V130.08H427.806V140H426.446V130.08H423.566ZM439.602 136.64L440.082 135.36H445.042L445.522 136.64H439.602ZM442.53 131.328L440.642 135.776L440.514 136.064L438.85 140H437.33L442.53 128.24L447.73 140H446.21L444.578 136.16L444.45 135.84L442.53 131.328ZM457.093 128.8H458.453V138.72H462.853V140H457.093V128.8ZM485.509 136.608C485.765 137.056 486.031 137.451 486.309 137.792C486.597 138.133 486.917 138.4 487.269 138.592C487.621 138.784 488.021 138.88 488.469 138.88C489.066 138.88 489.546 138.715 489.909 138.384C490.271 138.053 490.453 137.632 490.453 137.12C490.453 136.619 490.335 136.219 490.101 135.92C489.866 135.621 489.557 135.381 489.173 135.2C488.799 135.008 488.399 134.837 487.973 134.688C487.695 134.592 487.386 134.469 487.045 134.32C486.703 134.16 486.378 133.963 486.069 133.728C485.759 133.483 485.503 133.184 485.301 132.832C485.109 132.48 485.013 132.048 485.013 131.536C485.013 130.981 485.151 130.485 485.429 130.048C485.706 129.611 486.09 129.269 486.581 129.024C487.071 128.768 487.631 128.64 488.261 128.64C488.869 128.64 489.397 128.757 489.845 128.992C490.303 129.216 490.693 129.509 491.013 129.872C491.333 130.224 491.583 130.597 491.765 130.992L490.597 131.664C490.458 131.387 490.282 131.115 490.069 130.848C489.855 130.581 489.594 130.363 489.285 130.192C488.986 130.021 488.618 129.936 488.181 129.936C487.573 129.936 487.13 130.085 486.853 130.384C486.575 130.672 486.437 130.997 486.437 131.36C486.437 131.669 486.517 131.957 486.677 132.224C486.837 132.48 487.103 132.725 487.477 132.96C487.861 133.184 488.378 133.408 489.029 133.632C489.327 133.739 489.642 133.877 489.973 134.048C490.303 134.219 490.607 134.437 490.885 134.704C491.173 134.96 491.407 135.275 491.589 135.648C491.77 136.011 491.861 136.448 491.861 136.96C491.861 137.451 491.765 137.893 491.573 138.288C491.391 138.683 491.135 139.019 490.805 139.296C490.485 139.573 490.117 139.787 489.701 139.936C489.295 140.085 488.869 140.16 488.421 140.16C487.813 140.16 487.247 140.032 486.725 139.776C486.213 139.509 485.759 139.163 485.365 138.736C484.981 138.299 484.666 137.835 484.421 137.344L485.509 136.608ZM502.658 134.4C502.658 135.243 502.839 135.995 503.202 136.656C503.575 137.317 504.082 137.84 504.722 138.224C505.362 138.608 506.087 138.8 506.898 138.8C507.719 138.8 508.445 138.608 509.074 138.224C509.714 137.84 510.215 137.317 510.578 136.656C510.951 135.995 511.138 135.243 511.138 134.4C511.138 133.557 510.951 132.805 510.578 132.144C510.215 131.483 509.714 130.96 509.074 130.576C508.445 130.192 507.719 130 506.898 130C506.087 130 505.362 130.192 504.722 130.576C504.082 130.96 503.575 131.483 503.202 132.144C502.839 132.805 502.658 133.557 502.658 134.4ZM501.218 134.4C501.218 133.579 501.357 132.821 501.634 132.128C501.922 131.424 502.322 130.816 502.834 130.304C503.346 129.781 503.949 129.376 504.642 129.088C505.335 128.789 506.087 128.64 506.898 128.64C507.719 128.64 508.471 128.789 509.154 129.088C509.847 129.376 510.45 129.781 510.962 130.304C511.474 130.816 511.869 131.424 512.146 132.128C512.434 132.821 512.578 133.579 512.578 134.4C512.578 135.211 512.434 135.968 512.146 136.672C511.869 137.376 511.474 137.989 510.962 138.512C510.45 139.024 509.847 139.429 509.154 139.728C508.471 140.016 507.719 140.16 506.898 140.16C506.087 140.16 505.335 140.016 504.642 139.728C503.949 139.429 503.346 139.024 502.834 138.512C502.322 137.989 501.922 137.376 501.634 136.672C501.357 135.968 501.218 135.211 501.218 134.4ZM522.499 128.8H523.859V138.72H528.259V140H522.499V128.8ZM537.622 128.8H538.982V136.32C538.982 137.088 539.19 137.707 539.606 138.176C540.022 138.645 540.63 138.88 541.43 138.88C542.23 138.88 542.838 138.645 543.254 138.176C543.67 137.707 543.878 137.088 543.878 136.32V128.8H545.238V136.32C545.238 136.875 545.147 137.387 544.966 137.856C544.795 138.325 544.539 138.731 544.198 139.072C543.867 139.413 543.467 139.68 542.998 139.872C542.529 140.064 542.006 140.16 541.43 140.16C540.854 140.16 540.331 140.064 539.862 139.872C539.393 139.68 538.987 139.413 538.646 139.072C538.315 138.731 538.059 138.325 537.878 137.856C537.707 137.387 537.622 136.875 537.622 136.32V128.8ZM554.598 130.08V128.8H561.718V130.08H558.838V140H557.478V130.08H554.598ZM571.155 128.8H572.515V140H571.155V128.8ZM583.877 134.4C583.877 135.243 584.058 135.995 584.421 136.656C584.794 137.317 585.301 137.84 585.941 138.224C586.581 138.608 587.306 138.8 588.117 138.8C588.938 138.8 589.664 138.608 590.293 138.224C590.933 137.84 591.434 137.317 591.797 136.656C592.17 135.995 592.357 135.243 592.357 134.4C592.357 133.557 592.17 132.805 591.797 132.144C591.434 131.483 590.933 130.96 590.293 130.576C589.664 130.192 588.938 130 588.117 130C587.306 130 586.581 130.192 585.941 130.576C585.301 130.96 584.794 131.483 584.421 132.144C584.058 132.805 583.877 133.557 583.877 134.4ZM582.437 134.4C582.437 133.579 582.576 132.821 582.853 132.128C583.141 131.424 583.541 130.816 584.053 130.304C584.565 129.781 585.168 129.376 585.861 129.088C586.554 128.789 587.306 128.64 588.117 128.64C588.938 128.64 589.69 128.789 590.373 129.088C591.066 129.376 591.669 129.781 592.181 130.304C592.693 130.816 593.088 131.424 593.365 132.128C593.653 132.821 593.797 133.579 593.797 134.4C593.797 135.211 593.653 135.968 593.365 136.672C593.088 137.376 592.693 137.989 592.181 138.512C591.669 139.024 591.066 139.429 590.373 139.728C589.69 140.016 588.938 140.16 588.117 140.16C587.306 140.16 586.554 140.016 585.861 139.728C585.168 139.429 584.565 139.024 584.053 138.512C583.541 137.989 583.141 137.376 582.853 136.672C582.576 135.968 582.437 135.211 582.437 134.4ZM612.198 128.8H613.558V140.56L605.078 131.664V140H603.718V128.24L612.198 137.136V128.8ZM624.54 136.608C624.796 137.056 625.062 137.451 625.34 137.792C625.628 138.133 625.948 138.4 626.3 138.592C626.652 138.784 627.052 138.88 627.5 138.88C628.097 138.88 628.577 138.715 628.94 138.384C629.302 138.053 629.484 137.632 629.484 137.12C629.484 136.619 629.366 136.219 629.132 135.92C628.897 135.621 628.588 135.381 628.204 135.2C627.83 135.008 627.43 134.837 627.004 134.688C626.726 134.592 626.417 134.469 626.076 134.32C625.734 134.16 625.409 133.963 625.1 133.728C624.79 133.483 624.534 133.184 624.332 132.832C624.14 132.48 624.044 132.048 624.044 131.536C624.044 130.981 624.182 130.485 624.46 130.048C624.737 129.611 625.121 129.269 625.612 129.024C626.102 128.768 626.662 128.64 627.292 128.64C627.9 128.64 628.428 128.757 628.876 128.992C629.334 129.216 629.724 129.509 630.044 129.872C630.364 130.224 630.614 130.597 630.796 130.992L629.628 131.664C629.489 131.387 629.313 131.115 629.1 130.848C628.886 130.581 628.625 130.363 628.316 130.192C628.017 130.021 627.649 129.936 627.212 129.936C626.604 129.936 626.161 130.085 625.884 130.384C625.606 130.672 625.468 130.997 625.468 131.36C625.468 131.669 625.548 131.957 625.708 132.224C625.868 132.48 626.134 132.725 626.508 132.96C626.892 133.184 627.409 133.408 628.06 133.632C628.358 133.739 628.673 133.877 629.004 134.048C629.334 134.219 629.638 134.437 629.916 134.704C630.204 134.96 630.438 135.275 630.62 135.648C630.801 136.011 630.892 136.448 630.892 136.96C630.892 137.451 630.796 137.893 630.604 138.288C630.422 138.683 630.166 139.019 629.836 139.296C629.516 139.573 629.148 139.787 628.732 139.936C628.326 140.085 627.9 140.16 627.452 140.16C626.844 140.16 626.278 140.032 625.756 139.776C625.244 139.509 624.79 139.163 624.396 138.736C624.012 138.299 623.697 137.835 623.452 137.344L624.54 136.608Z" fill="black"/>
</svg>
